<svg width="13" height="12" viewBox="0 0 13 12" fill="none" xmlns="http://www.w3.org/2000/svg">
<path fill-rule="evenodd" clip-rule="evenodd" d="M6.80469 11.957C6.54687 11.957 6.33789 11.873 6.17773 11.7051C6.01758 11.5371 5.9375 11.3242 5.9375 11.0664V7.01172H1.71875C1.46875 7.01172 1.25195 6.93164 1.06836 6.77148C0.884765 6.61133 0.792969 6.41016 0.792969 6.16797C0.792969 5.91797 0.880858 5.7168 1.05664 5.56445C1.23242 5.41211 1.45312 5.33594 1.71875 5.33594H5.9375V1.24609C5.9375 0.996092 6.01758 0.783204 6.17773 0.607422C6.33789 0.43164 6.54687 0.34375 6.80469 0.34375C7.05469 0.34375 7.26172 0.429687 7.42578 0.601562C7.58984 0.773438 7.67188 0.98828 7.67188 1.24609V5.33594H11.9023C12.1523 5.33594 12.3691 5.41211 12.5527 5.56445C12.7363 5.7168 12.8281 5.91797 12.8281 6.16797C12.8281 6.41016 12.7383 6.61133 12.5586 6.77148C12.3789 6.93164 12.1602 7.01172 11.9023 7.01172H7.67188V11.0664C7.67188 11.3086 7.58984 11.5176 7.42578 11.6934C7.26172 11.8691 7.05469 11.957 6.80469 11.957Z" fill="#999999"/>
</svg>
