<svg width="50" height="51" viewBox="0 0 50 51" fill="none" xmlns="http://www.w3.org/2000/svg">
<rect y="0.425781" width="50" height="50" rx="25" fill="#EADDFF"/>
<rect x="0.5" y="0.925781" width="49" height="49" rx="24.5" stroke="black" stroke-opacity="0.1"/>
<path fill-rule="evenodd" clip-rule="evenodd" d="M32.5003 20.4258C32.5003 24.5679 29.1424 27.9258 25.0003 27.9258C20.8582 27.9258 17.5003 24.5679 17.5003 20.4258C17.5003 16.2836 20.8582 12.9258 25.0003 12.9258C29.1424 12.9258 32.5003 16.2836 32.5003 20.4258ZM30.0003 20.4258C30.0003 23.1872 27.7617 25.4258 25.0003 25.4258C22.2389 25.4258 20.0003 23.1872 20.0003 20.4258C20.0003 17.6644 22.2389 15.4258 25.0003 15.4258C27.7617 15.4258 30.0003 17.6644 30.0003 20.4258Z" fill="#4F378A"/>
<path d="M25.0003 31.6758C16.9073 31.6758 10.0119 36.4613 7.38525 43.1658C8.02512 43.8012 8.69918 44.4022 9.40441 44.9659C11.3603 38.8104 17.4962 34.1758 25.0003 34.1758C32.5044 34.1758 38.6403 38.8104 40.5962 44.9659C41.3014 44.4023 41.9755 43.8012 42.6154 43.1659C39.9887 36.4613 33.0933 31.6758 25.0003 31.6758Z" fill="#4F378A"/>
</svg>
