<svg width="246" height="295" viewBox="0 0 246 295" fill="none" xmlns="http://www.w3.org/2000/svg">
<path fill-rule="evenodd" clip-rule="evenodd" d="M167.367 25.0875C163.7 22.8209 152.967 16.4209 143.5 10.8209C134.033 5.28752 125.633 0.487501 124.833 0.154168C123.7 -0.245832 122.633 0.087493 120.233 1.68749C117.367 3.62083 117.033 4.02083 116.7 7.15417C116.433 9.02083 116.5 39.8209 116.767 75.4875C116.901 92.3142 117.005 105.456 117.081 116.588H140.806C140.831 108.338 140.865 97.005 140.9 84.7532C140.966 53.8865 141.233 41.4199 141.766 41.4199C142.833 41.4199 158.233 50.1532 174.033 59.7532C200.3 75.7532 214.9 84.4199 217.366 85.5532L219.033 86.2865V101.42V116.487L218.855 116.588H245.423C245.332 111.851 245.263 105.847 245.233 99.4209C245.167 74.6209 245.1 73.0875 243.9 72.3542C241.967 71.1542 219.233 56.8875 213.033 52.8875C201.1 45.2875 179.233 31.8875 176.7 30.6208C175.233 29.8208 171.033 27.3542 167.367 25.0875ZM245.048 178.088H219.323L219.7 178.221V194.621V211.088L216.833 212.488C213.1 214.288 199.566 221.688 188.366 228.088C183.433 230.955 177.3 234.355 174.7 235.755C172.166 237.155 165.833 240.688 160.7 243.688C155.566 246.621 149.1 250.221 146.366 251.621L141.366 254.155L141.166 207.355C141.138 196.349 141.146 186.161 141.18 178.088H117.209C117.165 191.553 117.083 207.807 116.967 230.554C116.7 289.421 116.7 290.021 118.033 291.021C118.767 291.621 120.633 292.554 122.167 293.154L124.967 294.288L131.167 290.621C134.567 288.554 140.5 285.221 144.367 283.088C151.167 279.288 176.367 265.088 185.033 260.088C187.433 258.688 195.833 253.888 203.7 249.421C211.567 244.888 222.967 238.354 229.033 234.888C235.1 231.421 241.233 227.954 242.7 227.154C244.167 226.354 245.5 225.554 245.7 225.354C245.9 225.088 245.833 220.754 245.633 215.688C245.367 210.554 245.167 197.221 245.1 185.888C245.088 182.892 245.071 180.309 245.048 178.088ZM25.346 116.588L25.4333 89.4209L32.3667 85.3542C36.2333 83.0875 42.7 79.1542 46.7 76.4875C54.0333 71.6875 79.5 55.4209 89.8333 48.9542C91.5919 47.8838 93.7013 46.5503 95.5705 45.3685C96.9609 44.4895 98.2185 43.6945 99.1 43.1542L102.833 40.8209L103.233 26.3542C103.5 18.3542 103.633 11.8209 103.5 11.6876C103.433 11.6209 101.9 12.6208 100.033 13.8875C98.2333 15.1542 94.9 17.0875 92.7667 18.2209C90.5667 19.2875 84.7 22.8209 79.7667 26.0209C74.7667 29.2875 67.1 34.0209 62.7 36.5542C58.3 39.1542 45.2333 47.2209 33.7 54.4209C6.08529 71.7112 4.69734 72.6387 3.17382 73.0102C3.06429 73.0369 2.95406 73.0607 2.83333 73.0875C1.24268 73.4852 1.23338 73.6852 0.840305 82.1375L0.833328 82.2875C0.713815 85.1957 0.594303 98.507 0.531693 116.588H25.346ZM0.5 178.088H25.4075C25.4521 183.738 25.5063 188.444 25.5667 191.621L25.9 210.888L27.6333 211.488C28.5667 211.888 31.3 213.288 33.7 214.688C35.6649 215.834 40.4451 218.589 45.2235 221.343C46.2815 221.952 47.3394 222.562 48.3667 223.154C52.4252 225.446 59.3222 229.448 65.8735 233.249C68.4693 234.755 71.0108 236.23 73.3 237.554C81.3 242.288 91.2333 247.954 95.3667 250.154L102.967 254.154L102.633 261.621C102.555 263.242 102.466 265.201 102.375 267.209C102.234 270.322 102.088 273.552 101.967 275.821L101.567 282.554L95.1667 278.754C91.5667 276.621 83.4333 271.954 77.0333 268.288C70.6333 264.688 59.1 257.954 51.3667 253.421C43.7 248.888 32.7 242.554 27.0333 239.354C21.3667 236.154 14.9 232.488 12.7 231.154C10.5 229.821 6.83333 227.821 4.63333 226.688L0.5 224.688V178.088Z" fill="white"/>
<path d="M58.431 160.062H68.199V166.5H54.102C51.66 164.206 49.81 161.301 48.552 157.786C47.294 154.271 46.665 150.664 46.665 146.964C46.665 143.227 47.368 139.638 48.774 136.197C50.18 132.756 52.2705 129.907 55.0455 127.65H68.199V134.31H58.431C57.432 135.457 56.5625 137.307 55.8225 139.86C55.1195 142.413 54.768 144.855 54.768 147.186C54.768 149.517 55.1195 151.959 55.8225 154.512C56.5625 157.065 57.432 158.915 58.431 160.062ZM88.323 166.5H76.224C72.524 163.059 70.674 158.36 70.674 152.403C70.674 149.406 71.081 146.797 71.895 144.577C72.746 142.357 74.078 140.211 75.891 138.139H88.878C90.802 140.359 92.1155 142.524 92.8185 144.633C93.5215 146.705 93.873 149.295 93.873 152.403C93.873 158.36 92.023 163.059 88.323 166.5ZM80.1645 160.672H84.3825C85.7145 158.082 86.3805 155.141 86.3805 151.848C86.3805 148.555 85.696 145.928 84.327 143.967H80.1645C78.8325 145.854 78.1665 148.536 78.1665 152.014C78.1665 155.455 78.8325 158.341 80.1645 160.672ZM98.1235 166.5V127.65H113.941C115.754 128.316 117.363 129.481 118.769 131.146C120.175 132.811 120.878 134.828 120.878 137.196C120.878 141.377 119.509 144.3 116.771 145.965V146.187C120.175 148.074 121.877 151.034 121.877 155.067C121.877 159.692 119.528 163.503 114.829 166.5H98.1235ZM105.671 143.689H111.166C112.794 142.69 113.608 141.173 113.608 139.138C113.608 137.103 112.849 135.494 111.332 134.31H105.671V143.689ZM105.671 160.062H111.388C112.054 159.581 112.646 158.822 113.164 157.786C113.719 156.75 113.996 155.714 113.996 154.678C113.996 153.642 113.774 152.699 113.33 151.848C112.886 150.997 112.331 150.368 111.665 149.961H105.671V160.062ZM135.474 166.5H129.646C128.018 164.428 126.908 162.356 126.316 160.284C125.724 158.212 125.428 155.622 125.428 152.514V138.139H132.81V153.069C132.81 156.436 133.476 158.97 134.808 160.672H139.969V138.139H147.351V166.5H141.523L140.524 164.502C139.118 165.834 137.435 166.5 135.474 166.5ZM152.099 166.5V138.139H159.425V166.5H152.099ZM152.099 127.65H159.425V135.143H152.099V127.65ZM171.512 127.65V166.5H164.186V127.65H171.512ZM197.751 166.5H192.145L191.146 164.502C190.332 165.242 189.555 165.76 188.815 166.056C188.112 166.352 187.039 166.5 185.596 166.5H180.768C179.14 164.946 177.845 162.911 176.883 160.395C175.958 157.879 175.495 155.067 175.495 151.959C175.495 148.814 175.958 146.15 176.883 143.967C177.845 141.784 179.195 139.841 180.934 138.139H185.707C187.668 138.139 189.222 138.657 190.369 139.693V127.65H197.751V166.5ZM190.369 143.967H185.041C183.672 146.298 182.988 149.165 182.988 152.569C182.988 155.936 183.654 158.637 184.986 160.672H190.369V143.967Z" fill="white"/>
</svg>
