<svg width="167" height="43" viewBox="0 0 167 43" fill="none" xmlns="http://www.w3.org/2000/svg">
<path fill-rule="evenodd" clip-rule="evenodd" d="M23.9694 3.7242C23.4461 3.40071 21.9143 2.48732 20.5632 1.6881C19.2121 0.898397 18.0133 0.21335 17.8991 0.165777C17.7374 0.10869 17.5852 0.156262 17.2426 0.38461C16.8335 0.66053 16.7859 0.717619 16.7384 1.1648C16.7003 1.43121 16.7098 5.82691 16.7479 10.9172C16.767 13.3186 16.7818 15.1941 16.7927 16.783H20.1787C20.1823 15.6055 20.1872 13.9881 20.1921 12.2395C20.2016 7.83433 20.2397 6.05512 20.3158 6.05512C20.468 6.05512 22.6659 7.30152 24.9208 8.67161C28.6695 10.9551 30.7532 12.192 31.1052 12.3537L31.3431 12.4584V14.6182V16.7684L31.3177 16.783H35.1094C35.0964 16.1069 35.0866 15.2499 35.0823 14.3329C35.0728 10.7935 35.0633 10.5746 34.892 10.47C34.6161 10.2987 31.3717 8.26262 30.4868 7.69175C28.7837 6.6071 25.663 4.69468 25.3014 4.51391C25.0921 4.39973 24.4927 4.0477 23.9694 3.7242ZM35.0559 25.5601H31.3844L31.4382 25.5791V27.9196V30.2697L31.0291 30.4695C30.4963 30.7264 28.5649 31.7825 26.9664 32.6959C26.2623 33.1051 25.387 33.5903 25.0159 33.7901C24.6544 33.9899 23.7505 34.4942 23.0179 34.9223C22.2853 35.341 21.3624 35.8547 20.9723 36.0546L20.2587 36.4161L20.2301 29.7369C20.2261 28.1663 20.2272 26.7122 20.2321 25.5601H16.811C16.8048 27.4818 16.793 29.8015 16.7764 33.0479C16.7384 41.4492 16.7384 41.5348 16.9287 41.6776C17.0333 41.7632 17.2997 41.8964 17.5186 41.982L17.9182 42.1438L18.803 41.6205C19.2883 41.3255 20.135 40.8498 20.6869 40.5453C21.6574 40.003 25.2538 37.9764 26.4907 37.2628C26.8333 37.063 28.0321 36.378 29.1548 35.7405C30.2775 35.0935 31.9045 34.1611 32.7703 33.6664C33.6361 33.1716 34.5115 32.6768 34.7208 32.5627C34.9301 32.4485 35.1204 32.3343 35.1489 32.3058C35.1775 32.2677 35.168 31.6493 35.1394 30.9262C35.1014 30.1936 35.0728 28.2907 35.0633 26.6732C35.0616 26.2457 35.0592 25.8771 35.0559 25.5601ZM3.70054 16.783L3.71301 12.9057L4.70252 12.3253C5.25436 12.0018 6.17726 11.4405 6.74813 11.0599C7.79473 10.3748 11.4293 8.05331 12.904 7.1304C13.155 6.97763 13.456 6.78731 13.7228 6.61866C13.9213 6.49321 14.1007 6.37974 14.2265 6.30263L14.7594 5.96963L14.8164 3.90498C14.8545 2.76324 14.8735 1.83082 14.8545 1.81179C14.845 1.80228 14.6261 1.94499 14.3597 2.12577C14.1028 2.30654 13.6271 2.58247 13.3227 2.74421C13.0087 2.89645 12.1714 3.40071 11.4673 3.85741C10.7537 4.32362 9.65957 4.99915 9.03162 5.3607C8.40366 5.73177 6.53882 6.88303 4.89281 7.91059C0.951704 10.3782 0.753619 10.5106 0.536186 10.5636C0.520554 10.5674 0.504822 10.5708 0.487592 10.5746C0.260579 10.6314 0.259252 10.6599 0.203153 11.8662L0.202157 11.8877C0.1851 12.3027 0.168044 14.2025 0.159108 16.783H3.70054ZM0.154585 25.5601H3.70933C3.71569 26.3665 3.72343 27.038 3.73204 27.4914L3.77961 30.2411L4.02699 30.3268C4.16019 30.3838 4.55029 30.5837 4.89281 30.7835C5.17304 30.9469 5.85449 31.3397 6.53596 31.7324C6.68744 31.8197 6.83892 31.907 6.986 31.9918C7.56529 32.3189 8.54977 32.8902 9.48486 33.4327C9.85521 33.6476 10.2178 33.858 10.5444 34.0469C11.6862 34.7225 13.1038 35.5312 13.6937 35.8452L14.7784 36.416L14.7308 37.4817C14.7196 37.713 14.707 37.9926 14.694 38.2792C14.6739 38.7234 14.653 39.1844 14.6357 39.5083L14.5786 40.4692L13.6652 39.9269C13.1514 39.6224 11.9906 38.9564 11.0772 38.4331C10.1638 37.9193 8.51783 36.9584 7.41415 36.3114C6.31998 35.6644 4.75009 34.7605 3.94136 34.3038C3.13262 33.8471 2.20972 33.3238 1.89574 33.1335C1.58176 32.9433 1.05846 32.6578 0.744484 32.4961L0.154585 32.2106V25.5601Z" fill="#00796B"/>
<path fill-rule="evenodd" clip-rule="evenodd" d="M23.9694 3.7242C23.4461 3.40071 21.9143 2.48732 20.5632 1.6881C19.2121 0.898397 18.0133 0.21335 17.8991 0.165777C17.7374 0.10869 17.5852 0.156262 17.2426 0.38461C16.8335 0.66053 16.7859 0.717619 16.7384 1.1648C16.7003 1.43121 16.7098 5.82691 16.7479 10.9172C16.767 13.3186 16.7818 15.1941 16.7927 16.783H20.1787C20.1823 15.6055 20.1872 13.9881 20.1921 12.2395C20.2016 7.83433 20.2397 6.05512 20.3158 6.05512C20.468 6.05512 22.6659 7.30152 24.9208 8.67161C28.6695 10.9551 30.7532 12.192 31.1052 12.3537L31.3431 12.4584V14.6182V16.7684L31.3177 16.783H35.1094C35.0964 16.1069 35.0866 15.2499 35.0823 14.3329C35.0728 10.7935 35.0633 10.5746 34.892 10.47C34.6161 10.2987 31.3717 8.26262 30.4868 7.69175C28.7837 6.6071 25.663 4.69468 25.3014 4.51391C25.0921 4.39973 24.4927 4.0477 23.9694 3.7242ZM35.0559 25.5601H31.3844L31.4382 25.5791V27.9196V30.2697L31.0291 30.4695C30.4963 30.7264 28.5649 31.7825 26.9664 32.6959C26.2623 33.1051 25.387 33.5903 25.0159 33.7901C24.6544 33.9899 23.7505 34.4942 23.0179 34.9223C22.2853 35.341 21.3624 35.8547 20.9723 36.0546L20.2587 36.4161L20.2301 29.7369C20.2261 28.1663 20.2272 26.7122 20.2321 25.5601H16.811C16.8048 27.4818 16.793 29.8015 16.7764 33.0479C16.7384 41.4492 16.7384 41.5348 16.9287 41.6776C17.0333 41.7632 17.2997 41.8964 17.5186 41.982L17.9182 42.1438L18.803 41.6205C19.2883 41.3255 20.135 40.8498 20.6869 40.5453C21.6574 40.003 25.2538 37.9764 26.4907 37.2628C26.8333 37.063 28.0321 36.378 29.1548 35.7405C30.2775 35.0935 31.9045 34.1611 32.7703 33.6664C33.6361 33.1716 34.5115 32.6768 34.7208 32.5627C34.9301 32.4485 35.1204 32.3343 35.1489 32.3058C35.1775 32.2677 35.168 31.6493 35.1394 30.9262C35.1014 30.1936 35.0728 28.2907 35.0633 26.6732C35.0616 26.2457 35.0592 25.8771 35.0559 25.5601ZM3.70054 16.783L3.71301 12.9057L4.70252 12.3253C5.25436 12.0018 6.17726 11.4405 6.74813 11.0599C7.79473 10.3748 11.4293 8.05331 12.904 7.1304C13.155 6.97763 13.456 6.78731 13.7228 6.61866C13.9213 6.49321 14.1007 6.37974 14.2265 6.30263L14.7594 5.96963L14.8164 3.90498C14.8545 2.76324 14.8735 1.83082 14.8545 1.81179C14.845 1.80228 14.6261 1.94499 14.3597 2.12577C14.1028 2.30654 13.6271 2.58247 13.3227 2.74421C13.0087 2.89645 12.1714 3.40071 11.4673 3.85741C10.7537 4.32362 9.65957 4.99915 9.03162 5.3607C8.40366 5.73177 6.53882 6.88303 4.89281 7.91059C0.951704 10.3782 0.753619 10.5106 0.536186 10.5636C0.520554 10.5674 0.504822 10.5708 0.487592 10.5746C0.260579 10.6314 0.259252 10.6599 0.203153 11.8662L0.202157 11.8877C0.1851 12.3027 0.168044 14.2025 0.159108 16.783H3.70054ZM0.154585 25.5601H3.70933C3.71569 26.3665 3.72343 27.038 3.73204 27.4914L3.77961 30.2411L4.02699 30.3268C4.16019 30.3838 4.55029 30.5837 4.89281 30.7835C5.17304 30.9469 5.85449 31.3397 6.53596 31.7324C6.68744 31.8197 6.83892 31.907 6.986 31.9918C7.56529 32.3189 8.54977 32.8902 9.48486 33.4327C9.85521 33.6476 10.2178 33.858 10.5444 34.0469C11.6862 34.7225 13.1038 35.5312 13.6937 35.8452L14.7784 36.416L14.7308 37.4817C14.7196 37.713 14.707 37.9926 14.694 38.2792C14.6739 38.7234 14.653 39.1844 14.6357 39.5083L14.5786 40.4692L13.6652 39.9269C13.1514 39.6224 11.9906 38.9564 11.0772 38.4331C10.1638 37.9193 8.51783 36.9584 7.41415 36.3114C6.31998 35.6644 4.75009 34.7605 3.94136 34.3038C3.13262 33.8471 2.20972 33.3238 1.89574 33.1335C1.58176 32.9433 1.05846 32.6578 0.744484 32.4961L0.154585 32.2106V25.5601Z" fill="url(#paint0_linear_1070_13262)" fill-opacity="0.12"/>
<path d="M8.42233 23.4244H9.8164V24.3433H7.80451C7.45599 24.0159 7.19196 23.6013 7.01243 23.0997C6.83289 22.598 6.74312 22.0832 6.74312 21.5551C6.74312 21.0218 6.84345 20.5096 7.04411 20.0185C7.24477 19.5274 7.54312 19.1208 7.93916 18.7987H9.8164V19.7492H8.42233C8.27976 19.9129 8.15566 20.1769 8.05005 20.5413C7.94972 20.9056 7.89956 21.2541 7.89956 21.5868C7.89956 21.9195 7.94972 22.268 8.05005 22.6324C8.15566 22.9967 8.27976 23.2607 8.42233 23.4244ZM12.6884 24.3433H10.9617C10.4336 23.8522 10.1696 23.1815 10.1696 22.3314C10.1696 21.9036 10.2277 21.5314 10.3439 21.2145C10.4653 20.8977 10.6554 20.5914 10.9142 20.2957H12.7676C13.0422 20.6126 13.2297 20.9215 13.33 21.2225C13.4304 21.5182 13.4805 21.8878 13.4805 22.3314C13.4805 23.1815 13.2165 23.8522 12.6884 24.3433ZM11.5241 23.5116H12.1261C12.3162 23.1419 12.4112 22.7221 12.4112 22.2522C12.4112 21.7822 12.3135 21.4073 12.1181 21.1274H11.5241C11.334 21.3967 11.2389 21.7796 11.2389 22.2759C11.2389 22.767 11.334 23.1789 11.5241 23.5116ZM14.0871 24.3433V18.7987H16.3446C16.6033 18.8937 16.833 19.0601 17.0337 19.2977C17.2344 19.5353 17.3347 19.8231 17.3347 20.1611C17.3347 20.7578 17.1393 21.1749 16.7485 21.4126V21.4442C17.2344 21.7135 17.4773 22.136 17.4773 22.7116C17.4773 23.3716 17.1419 23.9155 16.4713 24.3433H14.0871ZM15.1644 21.0878H15.9485C16.1809 20.9452 16.2971 20.7287 16.2971 20.4383C16.2971 20.1479 16.1888 19.9182 15.9723 19.7492H15.1644V21.0878ZM15.1644 23.4244H15.9802C16.0753 23.3558 16.1598 23.2475 16.2337 23.0997C16.3129 22.9518 16.3525 22.804 16.3525 22.6561C16.3525 22.5083 16.3208 22.3736 16.2575 22.2522C16.1941 22.1307 16.1149 22.0409 16.0198 21.9829H15.1644V23.4244ZM19.4177 24.3433H18.586C18.3536 24.0476 18.1952 23.7518 18.1107 23.4561C18.0263 23.1604 17.984 22.7908 17.984 22.3472V20.2957H19.0375V22.4264C19.0375 22.907 19.1325 23.2687 19.3226 23.5116H20.0593V20.2957H21.1127V24.3433H20.281L20.1385 24.0581C19.9378 24.2482 19.6975 24.3433 19.4177 24.3433ZM21.7905 24.3433V20.2957H22.836V24.3433H21.7905ZM21.7905 18.7987H22.836V19.868H21.7905V18.7987ZM24.561 18.7987V24.3433H23.5154V18.7987H24.561ZM28.3057 24.3433H27.5057L27.3631 24.0581C27.247 24.1637 27.1361 24.2377 27.0305 24.2799C26.9301 24.3221 26.777 24.3433 26.571 24.3433H25.8819C25.6496 24.1215 25.4648 23.831 25.3275 23.472C25.1955 23.1129 25.1295 22.7116 25.1295 22.268C25.1295 21.8192 25.1955 21.439 25.3275 21.1274C25.4648 20.8159 25.6575 20.5386 25.9057 20.2957H26.5869C26.8668 20.2957 27.0885 20.3696 27.2522 20.5175V18.7987H28.3057V24.3433ZM27.2522 21.1274H26.4918C26.2965 21.4601 26.1988 21.8693 26.1988 22.3551C26.1988 22.8357 26.2938 23.2211 26.4839 23.5116H27.2522V21.1274Z" fill="#00796B"/>
<path d="M8.42233 23.4244H9.8164V24.3433H7.80451C7.45599 24.0159 7.19196 23.6013 7.01243 23.0997C6.83289 22.598 6.74312 22.0832 6.74312 21.5551C6.74312 21.0218 6.84345 20.5096 7.04411 20.0185C7.24477 19.5274 7.54312 19.1208 7.93916 18.7987H9.8164V19.7492H8.42233C8.27976 19.9129 8.15566 20.1769 8.05005 20.5413C7.94972 20.9056 7.89956 21.2541 7.89956 21.5868C7.89956 21.9195 7.94972 22.268 8.05005 22.6324C8.15566 22.9967 8.27976 23.2607 8.42233 23.4244ZM12.6884 24.3433H10.9617C10.4336 23.8522 10.1696 23.1815 10.1696 22.3314C10.1696 21.9036 10.2277 21.5314 10.3439 21.2145C10.4653 20.8977 10.6554 20.5914 10.9142 20.2957H12.7676C13.0422 20.6126 13.2297 20.9215 13.33 21.2225C13.4304 21.5182 13.4805 21.8878 13.4805 22.3314C13.4805 23.1815 13.2165 23.8522 12.6884 24.3433ZM11.5241 23.5116H12.1261C12.3162 23.1419 12.4112 22.7221 12.4112 22.2522C12.4112 21.7822 12.3135 21.4073 12.1181 21.1274H11.5241C11.334 21.3967 11.2389 21.7796 11.2389 22.2759C11.2389 22.767 11.334 23.1789 11.5241 23.5116ZM14.0871 24.3433V18.7987H16.3446C16.6033 18.8937 16.833 19.0601 17.0337 19.2977C17.2344 19.5353 17.3347 19.8231 17.3347 20.1611C17.3347 20.7578 17.1393 21.1749 16.7485 21.4126V21.4442C17.2344 21.7135 17.4773 22.136 17.4773 22.7116C17.4773 23.3716 17.1419 23.9155 16.4713 24.3433H14.0871ZM15.1644 21.0878H15.9485C16.1809 20.9452 16.2971 20.7287 16.2971 20.4383C16.2971 20.1479 16.1888 19.9182 15.9723 19.7492H15.1644V21.0878ZM15.1644 23.4244H15.9802C16.0753 23.3558 16.1598 23.2475 16.2337 23.0997C16.3129 22.9518 16.3525 22.804 16.3525 22.6561C16.3525 22.5083 16.3208 22.3736 16.2575 22.2522C16.1941 22.1307 16.1149 22.0409 16.0198 21.9829H15.1644V23.4244ZM19.4177 24.3433H18.586C18.3536 24.0476 18.1952 23.7518 18.1107 23.4561C18.0263 23.1604 17.984 22.7908 17.984 22.3472V20.2957H19.0375V22.4264C19.0375 22.907 19.1325 23.2687 19.3226 23.5116H20.0593V20.2957H21.1127V24.3433H20.281L20.1385 24.0581C19.9378 24.2482 19.6975 24.3433 19.4177 24.3433ZM21.7905 24.3433V20.2957H22.836V24.3433H21.7905ZM21.7905 18.7987H22.836V19.868H21.7905V18.7987ZM24.561 18.7987V24.3433H23.5154V18.7987H24.561ZM28.3057 24.3433H27.5057L27.3631 24.0581C27.247 24.1637 27.1361 24.2377 27.0305 24.2799C26.9301 24.3221 26.777 24.3433 26.571 24.3433H25.8819C25.6496 24.1215 25.4648 23.831 25.3275 23.472C25.1955 23.1129 25.1295 22.7116 25.1295 22.268C25.1295 21.8192 25.1955 21.439 25.3275 21.1274C25.4648 20.8159 25.6575 20.5386 25.9057 20.2957H26.5869C26.8668 20.2957 27.0885 20.3696 27.2522 20.5175V18.7987H28.3057V24.3433ZM27.2522 21.1274H26.4918C26.2965 21.4601 26.1988 21.8693 26.1988 22.3551C26.1988 22.8357 26.2938 23.2211 26.4839 23.5116H27.2522V21.1274Z" fill="url(#paint1_linear_1070_13262)" fill-opacity="0.12"/>
<path d="M54.6297 32.9047H62.3605V38H51.2036C49.2709 36.1845 47.8068 33.8857 46.8112 31.1038C45.8155 28.322 45.3177 25.4669 45.3177 22.5385C45.3177 19.581 45.8741 16.7405 46.9869 14.0172C48.0996 11.2939 49.7541 9.03906 51.9503 7.2528H62.3605V12.5237H54.6297C53.8391 13.4315 53.151 14.8957 52.5653 16.9162C52.0089 18.9367 51.7307 20.8694 51.7307 22.7142C51.7307 24.5591 52.0089 26.4918 52.5653 28.5123C53.151 30.5328 53.8391 31.997 54.6297 32.9047ZM78.2872 38H68.7117C65.7834 35.2767 64.3192 31.5577 64.3192 26.8432C64.3192 24.4712 64.6413 22.4068 65.2856 20.6498C65.9591 18.8928 67.0133 17.1944 68.4481 15.5545H78.7265C80.2492 17.3115 81.2888 19.0246 81.8451 20.6937C82.4015 22.3336 82.6797 24.3834 82.6797 26.8432C82.6797 31.5577 81.2156 35.2767 78.2872 38ZM71.8303 33.3879H75.1686C76.2228 31.3381 76.7499 29.0101 76.7499 26.4039C76.7499 23.7977 76.2082 21.7186 75.1247 20.1666H71.8303C70.7761 21.6601 70.249 23.7831 70.249 26.5357C70.249 29.259 70.7761 31.5431 71.8303 33.3879ZM86.0437 38V7.2528H98.5622C99.9971 7.77989 101.271 8.70231 102.384 10.02C103.496 11.3378 104.053 12.9337 104.053 14.8078C104.053 18.1168 102.969 20.4302 100.802 21.7479V21.9236C103.496 23.417 104.843 25.7597 104.843 28.9515C104.843 32.6119 102.984 35.6281 99.265 38H86.0437ZM92.0174 19.947H96.366C97.6544 19.1564 98.2987 17.9558 98.2987 16.3452C98.2987 14.7346 97.6984 13.4608 96.4978 12.5237H92.0174V19.947ZM92.0174 32.9047H96.5417C97.0688 32.5241 97.5373 31.9238 97.9473 31.1038C98.3865 30.2839 98.6061 29.464 98.6061 28.6441C98.6061 27.8241 98.4304 27.0774 98.079 26.4039C97.7276 25.7304 97.2884 25.2326 96.7613 24.9105H92.0174V32.9047ZM115.604 38H110.992C109.703 36.3601 108.825 34.7203 108.356 33.0804C107.888 31.4406 107.654 29.3908 107.654 26.931V15.5545H113.496V27.3703C113.496 30.035 114.023 32.0409 115.077 33.3879H119.162V15.5545H125.004V38H120.392L119.601 36.4187C118.488 37.4729 117.156 38 115.604 38ZM128.762 38V15.5545H134.56V38H128.762ZM128.762 7.2528H134.56V13.1826H128.762V7.2528ZM144.126 7.2528V38H138.328V7.2528H144.126ZM164.892 38H160.456L159.665 36.4187C159.021 37.0044 158.406 37.4143 157.82 37.6486C157.264 37.8829 156.415 38 155.273 38H151.451C150.163 36.7701 149.138 35.1595 148.376 33.1683C147.644 31.177 147.278 28.9515 147.278 26.4918C147.278 24.0027 147.644 21.8943 148.376 20.1666C149.138 18.4389 150.207 16.9016 151.583 15.5545H155.36C156.912 15.5545 158.142 15.9645 159.05 16.7844V7.2528H164.892V38ZM159.05 20.1666H154.833C153.75 22.0115 153.208 24.2809 153.208 26.9749C153.208 29.6397 153.735 31.7774 154.789 33.3879H159.05V20.1666Z" fill="#0D0B07"/>
<defs>
<linearGradient id="paint0_linear_1070_13262" x1="17.6603" y1="0.143555" x2="17.6603" y2="42.1436" gradientUnits="userSpaceOnUse">
<stop stop-color="white"/>
<stop offset="1" stop-color="white" stop-opacity="0"/>
</linearGradient>
<linearGradient id="paint1_linear_1070_13262" x1="18.0055" y1="15.3433" x2="18.0055" y2="26.3433" gradientUnits="userSpaceOnUse">
<stop stop-color="white"/>
<stop offset="1" stop-color="white" stop-opacity="0"/>
</linearGradient>
</defs>
</svg>
