<svg width="25" height="25" viewBox="0 0 25 25" fill="none" xmlns="http://www.w3.org/2000/svg">
<path fill-rule="evenodd" clip-rule="evenodd" d="M23.4678 8.66998C23.8583 8.27945 23.8583 7.64628 23.4678 7.25577C23.0773 6.86525 22.4441 6.86527 22.0536 7.2558L12.761 16.5488L11.9677 15.7557C11.5771 15.3652 10.944 15.3653 10.5535 15.7559C10.1631 16.1465 10.1632 16.7796 10.5537 17.1701L12.0541 18.6701C12.4447 19.0605 13.0778 19.0605 13.4683 18.67L23.4678 8.66998ZM17.4678 8.67C17.8583 8.27947 17.8583 7.64631 17.4678 7.25578C17.0773 6.86526 16.4441 6.86526 16.0536 7.25578L6.76074 16.5487L3.46785 13.2558C3.07732 12.8653 2.44416 12.8653 2.05363 13.2558C1.66311 13.6463 1.66311 14.2795 2.05363 14.67L6.05363 18.67C6.24117 18.8575 6.49552 18.9629 6.76074 18.9629C7.02596 18.9629 7.28031 18.8575 7.46785 18.67L17.4678 8.67Z" fill="#090909"/>
</svg>
