<svg xmlns="http://www.w3.org/2000/svg" width="274.812" height="228.687" viewBox="0 0 274.812 228.687">
  <g id="Group_2865" data-name="Group 2865" transform="translate(-50 -248.523)">
    <!-- <text id="No_Data" data-name="No Data" transform="translate(187 471.21)" fill="#202020" font-size="18" font-family="Poppins, sans-serif" font-weight="600"><tspan x="-36.648" y="0">No Data</tspan></text> -->
    <g id="illustrations" transform="translate(-301 -64.602)">
      <g id="Background_Complete" data-name="Background Complete" transform="translate(360.749 342.429)">
        <g id="Group_2633" data-name="Group 2633" transform="translate(0 0)">
          <g id="Group_2617" data-name="Group 2617" transform="translate(0)">
            <rect id="Rectangle_2683" data-name="Rectangle 2683" width="61.669" height="90.806" transform="matrix(0.831, -0.556, 0.556, 0.831, 0, 34.286)" fill="#f5f5f5"/>
          </g>
          <g id="Group_2620" data-name="Group 2620" transform="translate(49.199 59.056)">
            <g id="Group_2618" data-name="Group 2618" transform="translate(0 9.172)">
              <path id="Path_3834" data-name="Path 3834" d="M241.431,275.295l-.582,3.6-25.482-3.671.582-3.6Z" transform="translate(-215.368 -271.624)" fill="#e0e0e0"/>
            </g>
            <g id="Group_2619" data-name="Group 2619" transform="translate(9.176)">
              <path id="Path_3835" data-name="Path 3835" d="M239.509,251.546l3.657.527-4.054,25.089-3.657-.527Z" transform="translate(-235.454 -251.546)" fill="#e0e0e0"/>
            </g>
          </g>
          <g id="Group_2622" data-name="Group 2622" transform="translate(55.183 28.653)">
            <g id="Group_2621" data-name="Group 2621" transform="translate(0 0)">
              <path id="Path_3836" data-name="Path 3836" d="M228.466,184.995" transform="translate(-228.466 -184.995)" fill="none" stroke="#fff" stroke-miterlimit="10" stroke-width="1"/>
            </g>
          </g>
          <g id="Group_2624" data-name="Group 2624" transform="translate(15.88 27.167)">
            <g id="Group_2623" data-name="Group 2623">
              <path id="Path_3837" data-name="Path 3837" d="M165.514,181.744c.037.055-5.1,3.555-11.472,7.817s-11.569,7.674-11.606,7.619,5.1-3.554,11.473-7.817S165.477,181.69,165.514,181.744Z" transform="translate(-142.436 -181.744)" fill="#e0e0e0"/>
            </g>
          </g>
          <g id="Group_2626" data-name="Group 2626" transform="translate(19.52 22.436)">
            <g id="Group_2625" data-name="Group 2625">
              <path id="Path_3838" data-name="Path 3838" d="M188.692,171.387c.037.055-8.506,5.833-19.078,12.9S150.439,197.051,150.4,197s8.5-5.831,19.08-12.9S188.656,171.332,188.692,171.387Z" transform="translate(-150.403 -171.386)" fill="#e0e0e0"/>
            </g>
          </g>
          <g id="Group_2628" data-name="Group 2628" transform="translate(23.299 28.085)">
            <g id="Group_2627" data-name="Group 2627">
              <path id="Path_3839" data-name="Path 3839" d="M196.964,183.753c.037.055-8.506,5.832-19.077,12.9s-19.175,12.761-19.212,12.707,8.5-5.831,19.079-12.9S196.927,183.7,196.964,183.753Z" transform="translate(-158.675 -183.752)" fill="#e0e0e0"/>
            </g>
          </g>
          <g id="Group_2630" data-name="Group 2630" transform="translate(27.078 33.735)">
            <g id="Group_2629" data-name="Group 2629">
              <path id="Path_3840" data-name="Path 3840" d="M205.235,196.12c.037.054-8.505,5.832-19.077,12.9s-19.175,12.761-19.212,12.707,8.5-5.831,19.079-12.9S205.2,196.065,205.235,196.12Z" transform="translate(-166.946 -196.119)" fill="#e0e0e0"/>
            </g>
          </g>
          <g id="Group_2632" data-name="Group 2632" transform="translate(30.856 39.384)">
            <g id="Group_2631" data-name="Group 2631">
              <path id="Path_3841" data-name="Path 3841" d="M213.506,208.486c.037.055-8.506,5.833-19.078,12.9S175.253,234.15,175.217,234.1s8.5-5.831,19.08-12.9S213.47,208.431,213.506,208.486Z" transform="translate(-175.217 -208.485)" fill="#e0e0e0"/>
            </g>
          </g>
        </g>
        <g id="Group_2650" data-name="Group 2650" transform="translate(179.615 50.585)">
          <g id="Group_2634" data-name="Group 2634" transform="translate(0 0)">
            <rect id="Rectangle_2684" data-name="Rectangle 2684" width="51.792" height="76.261" transform="translate(0 28.794) rotate(-33.777)" fill="#f5f5f5"/>
          </g>
          <g id="Group_2637" data-name="Group 2637" transform="translate(41.319 49.597)">
            <g id="Group_2635" data-name="Group 2635" transform="translate(0 7.703)">
              <path id="Path_3842" data-name="Path 3842" d="M613.174,361.514l-.489,3.024-21.4-3.083.489-3.024Z" transform="translate(-591.285 -358.431)" fill="#e0e0e0"/>
            </g>
            <g id="Group_2636" data-name="Group 2636" transform="translate(7.707)">
              <path id="Path_3843" data-name="Path 3843" d="M611.56,341.569l3.071.442-3.4,21.07-3.071-.442Z" transform="translate(-608.155 -341.569)" fill="#e0e0e0"/>
            </g>
          </g>
          <g id="Group_2639" data-name="Group 2639" transform="translate(46.344 24.064)">
            <g id="Group_2638" data-name="Group 2638">
              <path id="Path_3844" data-name="Path 3844" d="M602.285,285.678" transform="translate(-602.285 -285.678)" fill="none" stroke="#fff" stroke-miterlimit="10" stroke-width="1"/>
            </g>
          </g>
          <g id="Group_2641" data-name="Group 2641" transform="translate(13.337 22.816)">
            <g id="Group_2640" data-name="Group 2640">
              <path id="Path_3845" data-name="Path 3845" d="M549.416,282.947c.037.055-4.273,3-9.624,6.58s-9.721,6.438-9.757,6.383,4.272-3,9.625-6.581S549.38,282.893,549.416,282.947Z" transform="translate(-530.034 -282.946)" fill="#e0e0e0"/>
            </g>
          </g>
          <g id="Group_2643" data-name="Group 2643" transform="translate(16.394 18.842)">
            <g id="Group_2642" data-name="Group 2642">
              <path id="Path_3846" data-name="Path 3846" d="M568.882,274.248c.037.055-7.133,4.914-16.011,10.852s-16.109,10.71-16.145,10.656,7.131-4.913,16.013-10.854S568.845,274.194,568.882,274.248Z" transform="translate(-536.726 -274.248)" fill="#e0e0e0"/>
            </g>
          </g>
          <g id="Group_2645" data-name="Group 2645" transform="translate(19.567 23.587)">
            <g id="Group_2644" data-name="Group 2644">
              <path id="Path_3847" data-name="Path 3847" d="M575.829,284.634c.037.054-7.133,4.914-16.011,10.852s-16.108,10.71-16.145,10.655,7.131-4.913,16.013-10.853S575.792,284.58,575.829,284.634Z" transform="translate(-543.673 -284.634)" fill="#e0e0e0"/>
            </g>
          </g>
          <g id="Group_2647" data-name="Group 2647" transform="translate(22.741 28.331)">
            <g id="Group_2646" data-name="Group 2646">
              <path id="Path_3848" data-name="Path 3848" d="M582.775,295.019c.036.055-7.133,4.914-16.011,10.852s-16.109,10.71-16.145,10.656,7.131-4.913,16.013-10.853S582.738,294.965,582.775,295.019Z" transform="translate(-550.619 -295.019)" fill="#e0e0e0"/>
            </g>
          </g>
          <g id="Group_2649" data-name="Group 2649" transform="translate(25.914 33.076)">
            <g id="Group_2648" data-name="Group 2648">
              <path id="Path_3849" data-name="Path 3849" d="M589.722,305.406c.036.055-7.133,4.914-16.011,10.852s-16.108,10.71-16.145,10.655S564.7,322,573.579,316.06,589.686,305.351,589.722,305.406Z" transform="translate(-557.566 -305.405)" fill="#e0e0e0"/>
            </g>
          </g>
        </g>
      </g>
      <g id="Floor" transform="translate(351 487.382)">
        <g id="Group_2672" data-name="Group 2672">
          <g id="Group_2671" data-name="Group 2671">
            <path id="Path_3859" data-name="Path 3859" d="M350.084,439.687c0,.066-59.047.119-131.868.119-72.847,0-131.881-.053-131.881-.119s59.034-.119,131.881-.119C291.037,439.568,350.084,439.621,350.084,439.687Z" transform="translate(-86.334 -439.568)" fill="#263238"/>
          </g>
        </g>
      </g>
      <g id="Plant" transform="translate(360.749 458.89)">
        <g id="Group_2682" data-name="Group 2682" transform="translate(0)">
          <g id="Group_2673" data-name="Group 2673" transform="translate(3.159)">
            <path id="Path_3860" data-name="Path 3860" d="M116.278,377.2a5.759,5.759,0,0,1,4.013,2.055,10.166,10.166,0,0,1,2.043,4.117,17.938,17.938,0,0,1-.526,9.173c-3.127-1.118-5.056-4.453-5.928-6.207-1.378-2.771-2.186-8.617.4-9.138" transform="translate(-114.589 -377.201)" fill="#ececec"/>
          </g>
          <g id="Group_2674" data-name="Group 2674" transform="translate(14.097 10.562)">
            <path id="Path_3861" data-name="Path 3861" d="M139.313,408.6a4.913,4.913,0,0,1-.23-4.928,6.526,6.526,0,0,1,3.929-3.158,2.748,2.748,0,0,1,2.313.111,2.1,2.1,0,0,1,.809,1.97,4.258,4.258,0,0,1-.9,2.022c-1.52,2.059-3.37,3.772-5.921,3.984" transform="translate(-138.532 -400.32)" fill="#ececec"/>
          </g>
          <g id="Group_2676" data-name="Group 2676" transform="translate(14.312 14.053)">
            <g id="Group_2675" data-name="Group 2675">
              <path id="Path_3862" data-name="Path 3862" d="M139.913,422.408a3.453,3.453,0,0,1-.14-.6l-.322-1.646a17.243,17.243,0,0,1-.342-5.53,10.554,10.554,0,0,1,2.051-5.125,7.188,7.188,0,0,1,1.186-1.2,4.4,4.4,0,0,1,.372-.267c.087-.058.135-.085.139-.079a11.271,11.271,0,0,0-1.577,1.638,10.9,10.9,0,0,0-1.958,5.061,18.567,18.567,0,0,0,.278,5.474c.112.7.2,1.266.254,1.659A3.25,3.25,0,0,1,139.913,422.408Z" transform="translate(-139.003 -407.961)" fill="#263238"/>
            </g>
          </g>
          <g id="Group_2678" data-name="Group 2678" transform="translate(5.856 4.397)">
            <g id="Group_2677" data-name="Group 2677">
              <path id="Path_3863" data-name="Path 3863" d="M120.493,386.826a1.263,1.263,0,0,1,.126.237l.323.7c.276.606.665,1.488,1.136,2.583.942,2.188,2.2,5.229,3.516,8.617s2.435,6.486,3.214,8.737c.39,1.125.7,2.038.9,2.673.095.3.171.543.231.731a1.218,1.218,0,0,1,.067.26,1.28,1.28,0,0,1-.108-.246l-.27-.718-.967-2.649c-.816-2.237-1.958-5.322-3.271-8.71s-2.55-6.435-3.456-8.637l-1.072-2.609-.285-.712A1.242,1.242,0,0,1,120.493,386.826Z" transform="translate(-120.492 -386.826)" fill="#263238"/>
            </g>
          </g>
          <g id="Group_2679" data-name="Group 2679" transform="translate(0 16.558)">
            <path id="Path_3864" data-name="Path 3864" d="M119.184,419a11.49,11.49,0,0,0-8.918-5.541c-.924-.067-2.037.088-2.449.918a2.381,2.381,0,0,0,.769,2.5,9.819,9.819,0,0,0,10.633,2.373" transform="translate(-107.674 -413.445)" fill="#ececec"/>
          </g>
          <g id="Group_2681" data-name="Group 2681" transform="translate(3.999 19.039)">
            <g id="Group_2680" data-name="Group 2680">
              <path id="Path_3865" data-name="Path 3865" d="M116.429,418.883a3.007,3.007,0,0,1,.579.021,5.611,5.611,0,0,1,.675.078c.26.049.564.077.886.167a10.185,10.185,0,0,1,1.053.293,11.416,11.416,0,0,1,1.175.446,12.8,12.8,0,0,1,2.475,1.467,12.527,12.527,0,0,1,2.046,2.024,10.923,10.923,0,0,1,.72,1.03,9.183,9.183,0,0,1,.536.954,8.5,8.5,0,0,1,.368.823,5.186,5.186,0,0,1,.23.64,3.007,3.007,0,0,1,.151.559c-.046.016-.269-.783-.884-1.952a10.027,10.027,0,0,0-.551-.927,11.548,11.548,0,0,0-.725-1,13,13,0,0,0-2.022-1.977,13.285,13.285,0,0,0-2.424-1.457,11.927,11.927,0,0,0-1.15-.458,10.79,10.79,0,0,0-1.033-.314C117.25,418.975,116.424,418.931,116.429,418.883Z" transform="translate(-116.429 -418.876)" fill="#263238"/>
            </g>
          </g>
        </g>
      </g>
      <g id="Character" transform="translate(535.544 317.672)">
        <g id="Group_2848" data-name="Group 2848">
          <g id="Group_2686" data-name="Group 2686" transform="translate(29.734 16.133)">
            <g id="Group_2683" data-name="Group 2683">
              <path id="Path_3866" data-name="Path 3866" d="M562.223,104.347c-1.343.309-2,1.855-2.125,3.228s.048,2.822-.529,4.074c-.649,1.409-2.2,2.448-2.25,4-.032.946.53,1.835.5,2.78-.044,1.553-1.628,2.726-1.711,4.278-.06,1.117.684,2.189.505,3.293a15.525,15.525,0,0,1-1.091,2.36c-.564,1.641.563,3.448,2.032,4.372a6.662,6.662,0,0,0,9.707-3.1c.813-1.973.635-4.195.459-6.321q-.826-9.94-1.227-19.91" transform="translate(-555.378 -103.399)" fill="#263238"/>
            </g>
            <g id="Group_2685" data-name="Group 2685" transform="translate(2.943 1.473)">
              <g id="Group_2684" data-name="Group 2684">
                <path id="Path_3867" data-name="Path 3867" d="M561.822,129.484a1.611,1.611,0,0,0,.614-.73,2.591,2.591,0,0,0,.156-1.115,6.177,6.177,0,0,0-.333-1.479,4.22,4.22,0,0,1-.239-1.873,4.272,4.272,0,0,1,1.089-1.87,4.168,4.168,0,0,0,.617-.937,1.514,1.514,0,0,0,.072-1.1c-.236-.746-.967-1.3-1.3-2.157a2.328,2.328,0,0,1-.073-1.333,5.415,5.415,0,0,1,.441-1.2,10.231,10.231,0,0,0,.908-2.149c.321-1.449.171-2.832.389-3.969a4.407,4.407,0,0,1,1.155-2.435,2.6,2.6,0,0,1,.6-.43,1.041,1.041,0,0,1,.242-.09,3.69,3.69,0,0,0-.78.586,4.445,4.445,0,0,0-1.055,2.4,14.954,14.954,0,0,0-.127,1.846,11.284,11.284,0,0,1-.215,2.144,10.2,10.2,0,0,1-.91,2.2,3,3,0,0,0-.355,2.346c.29.778,1.026,1.33,1.3,2.17a1.744,1.744,0,0,1-.085,1.256,4.363,4.363,0,0,1-.655.985,3,3,0,0,0-.859,3.558,6.1,6.1,0,0,1,.3,1.519,2.606,2.606,0,0,1-.2,1.158,1.389,1.389,0,0,1-.468.577A.755.755,0,0,1,561.822,129.484Z" transform="translate(-561.821 -106.624)" fill="#455a64"/>
              </g>
            </g>
          </g>
          <path id="Path_3868" data-name="Path 3868" d="M525.192,180.366l-4.124,11.888-17.2.922L501,199.557l17.954,1.817a6.784,6.784,0,0,0,8.977-3.981l4.791-13.374Z" transform="translate(-496.11 -129.071)" fill="#ffbe9d"/>
          <g id="Group_2691" data-name="Group 2691" transform="translate(32.696 84.611)">
            <g id="Group_2689" data-name="Group 2689">
              <g id="Group_2687" data-name="Group 2687">
                <path id="Path_3869" data-name="Path 3869" d="M593.818,332.054s-12.6-40.027-12.87-41.327c-.242-1.174,4.574-29.979,5.18-37.435l-17.028.635v.124l-7.238.4,6.483,81.863h7.836l-.777-27.16a264.527,264.527,0,0,0,11.756,26.193Z" transform="translate(-561.86 -253.293)" fill="#ffbe9d"/>
              </g>
              <g id="Group_2688" data-name="Group 2688" transform="translate(10.832 48.311)">
                <path id="Path_3870" data-name="Path 3870" d="M588.6,376.329c.007-.249-.095-9.1-.095-9.1-.1.529-3-7.685-2.934-8.185C585.607,358.786,588.6,376.329,588.6,376.329Z" transform="translate(-585.57 -359.042)" fill="#ffbe9d"/>
              </g>
            </g>
            <g id="Group_2690" data-name="Group 2690" transform="translate(10.438 44.424)">
              <path id="Path_3871" data-name="Path 3871" d="M584.772,350.535a1.829,1.829,0,0,0-.05.5,13.1,13.1,0,0,0,.01,1.357c.011.287.041.6.078.936s.089.694.166,1.066a18.181,18.181,0,0,0,.641,2.385c.569,1.656,1.2,3.1,1.642,4.155l.546,1.238a1.836,1.836,0,0,0,.233.441,1.868,1.868,0,0,0-.138-.479c-.105-.3-.265-.736-.469-1.269-.4-1.069-1-2.528-1.567-4.169a20.7,20.7,0,0,1-.652-2.35c-.083-.365-.136-.718-.187-1.047s-.086-.638-.109-.921c-.054-.566-.078-1.026-.092-1.344A1.866,1.866,0,0,0,584.772,350.535Z" transform="translate(-584.709 -350.535)" fill="#ffbe9d"/>
            </g>
          </g>
          <g id="Group_2723" data-name="Group 2723" transform="translate(33.637 166.953)">
            <g id="Group_2722" data-name="Group 2722" transform="translate(0 0)">
              <g id="Group_2693" data-name="Group 2693" transform="translate(0.001)">
                <g id="Group_2692" data-name="Group 2692">
                  <path id="Path_3872" data-name="Path 3872" d="M569.316,434.619l0-.736,8.027-.35.022,3.036-.5.033c-2.2.129-11.211.5-12.686.058C562.536,436.168,569.316,434.619,569.316,434.619Z" transform="translate(-563.923 -433.534)" fill="#263238"/>
                </g>
              </g>
              <g id="Group_2695" data-name="Group 2695" transform="translate(0 2.847)">
                <g id="Group_2694" data-name="Group 2694">
                  <path id="Path_3873" data-name="Path 3873" d="M577.472,439.771a.691.691,0,0,1-.137.016l-.394.025-1.451.068c-1.226.048-2.92.093-4.792.1s-3.567-.022-4.793-.06l-1.452-.055-.394-.022a.7.7,0,0,1-.138-.014.747.747,0,0,1,.138-.005l.4,0,1.452.024c1.226.02,2.92.039,4.791.031s3.564-.042,4.79-.073l1.452-.037.395-.007A.756.756,0,0,1,577.472,439.771Z" transform="translate(-563.921 -439.767)" fill="#263238"/>
                </g>
              </g>
              <g id="Group_2697" data-name="Group 2697" transform="translate(2.023 1.862)">
                <g id="Group_2696" data-name="Group 2696">
                  <path id="Path_3874" data-name="Path 3874" d="M569.119,438.859a2.11,2.11,0,0,0-.77-1.246,1.289,1.289,0,0,1,.77,1.246Z" transform="translate(-568.349 -437.61)" fill="#263238"/>
                </g>
              </g>
              <g id="Group_2699" data-name="Group 2699" transform="translate(4.718 1.242)">
                <g id="Group_2698" data-name="Group 2698">
                  <path id="Path_3875" data-name="Path 3875" d="M574.676,436.918c-.023.014-.136-.122-.253-.306s-.194-.343-.171-.357.136.122.253.305S574.7,436.9,574.676,436.918Z" transform="translate(-574.247 -436.254)" fill="#263238"/>
                </g>
              </g>
              <g id="Group_2701" data-name="Group 2701" transform="translate(5.289 1.114)">
                <g id="Group_2700" data-name="Group 2700">
                  <path id="Path_3876" data-name="Path 3876" d="M576,436.42c-.018.02-.144-.064-.282-.186s-.236-.239-.218-.259.144.064.282.186S576.018,436.4,576,436.42Z" transform="translate(-575.498 -435.971)" fill="#263238"/>
                </g>
              </g>
              <g id="Group_2703" data-name="Group 2703" transform="translate(5.363 0.764)">
                <g id="Group_2702" data-name="Group 2702">
                  <path id="Path_3877" data-name="Path 3877" d="M576.494,435.25a.933.933,0,0,1-.417.055.95.95,0,0,1-.418-.042.937.937,0,0,1,.416-.055A.95.95,0,0,1,576.494,435.25Z" transform="translate(-575.66 -435.207)" fill="#263238"/>
                </g>
              </g>
              <g id="Group_2705" data-name="Group 2705" transform="translate(5.391 0.267)">
                <g id="Group_2704" data-name="Group 2704">
                  <path id="Path_3878" data-name="Path 3878" d="M576.666,434.127a1.176,1.176,0,0,1-.945.075,37.611,37.611,0,0,0,.945-.075Z" transform="translate(-575.721 -434.119)" fill="#263238"/>
                </g>
              </g>
              <g id="Group_2707" data-name="Group 2707" transform="translate(3.366 0.497)">
                <g id="Group_2706" data-name="Group 2706">
                  <path id="Path_3879" data-name="Path 3879" d="M572.795,435.335a1.472,1.472,0,0,1-.513,0,3.005,3.005,0,0,1-.547-.118,1.5,1.5,0,0,1-.313-.128.276.276,0,0,1-.128-.158.2.2,0,0,1,.077-.206.941.941,0,0,1,1.164.271.912.912,0,0,1,.169.342.292.292,0,0,1,.014.139,1.457,1.457,0,0,0-.236-.437.925.925,0,0,0-.439-.283.8.8,0,0,0-.612.044c-.081.061-.049.157.042.21a1.555,1.555,0,0,0,.289.122,3.558,3.558,0,0,0,.529.135C572.6,435.319,572.795,435.319,572.795,435.335Z" transform="translate(-571.288 -434.621)" fill="#263238"/>
                </g>
              </g>
              <g id="Group_2709" data-name="Group 2709" transform="translate(4.675 0.242)">
                <g id="Group_2708" data-name="Group 2708">
                  <path id="Path_3880" data-name="Path 3880" d="M574.218,435.058a.508.508,0,0,1-.06-.356.834.834,0,0,1,.139-.375.514.514,0,0,1,.426-.263.2.2,0,0,1,.159.236.566.566,0,0,1-.086.23,1.542,1.542,0,0,1-.241.311.737.737,0,0,1-.293.209c-.009-.012.1-.092.243-.255a1.8,1.8,0,0,0,.214-.308c.07-.109.117-.3-.011-.327s-.259.117-.337.219a.854.854,0,0,0-.144.334A1.932,1.932,0,0,0,574.218,435.058Z" transform="translate(-574.154 -434.063)" fill="#263238"/>
                </g>
              </g>
              <g id="Group_2711" data-name="Group 2711" transform="translate(10.55 0.615)">
                <g id="Group_2710" data-name="Group 2710">
                  <path id="Path_3881" data-name="Path 3881" d="M589.845,434.933c0,.018-.229-.021-.589.023a2.5,2.5,0,0,0-2.086,1.675c-.12.343-.132.573-.149.571a.457.457,0,0,1,0-.161,2.091,2.091,0,0,1,.085-.431,2.426,2.426,0,0,1,2.144-1.721,2.1,2.1,0,0,1,.439.01A.452.452,0,0,1,589.845,434.933Z" transform="translate(-587.014 -434.881)" fill="#263238"/>
                </g>
              </g>
              <g id="Group_2713" data-name="Group 2713" transform="translate(7.203 2.206)">
                <g id="Group_2712" data-name="Group 2712">
                  <path id="Path_3882" data-name="Path 3882" d="M582.021,438.372a6.564,6.564,0,0,1-2.334.013c0-.028.524.006,1.167,0S582.018,438.344,582.021,438.372Z" transform="translate(-579.687 -438.362)" fill="#263238"/>
                </g>
              </g>
              <g id="Group_2715" data-name="Group 2715" transform="translate(10.874 2.196)">
                <g id="Group_2714" data-name="Group 2714">
                  <path id="Path_3883" data-name="Path 3883" d="M587.951,438.343c.019.019-.043.111-.1.23s-.081.226-.109.225-.042-.126.021-.264S587.934,438.324,587.951,438.343Z" transform="translate(-587.724 -438.34)" fill="#263238"/>
                </g>
              </g>
              <g id="Group_2717" data-name="Group 2717" transform="translate(11.386 1.459)">
                <g id="Group_2716" data-name="Group 2716">
                  <path id="Path_3884" data-name="Path 3884" d="M589.147,436.731c.019.019-.032.1-.115.186s-.164.137-.184.118.032-.1.115-.186S589.128,436.712,589.147,436.731Z" transform="translate(-588.845 -436.727)" fill="#263238"/>
                </g>
              </g>
              <g id="Group_2719" data-name="Group 2719" transform="translate(12.076 1.079)">
                <g id="Group_2718" data-name="Group 2718">
                  <path id="Path_3885" data-name="Path 3885" d="M590.81,435.94c-.005.027-.112.027-.229.069s-.2.1-.222.086.045-.128.191-.178S590.817,435.916,590.81,435.94Z" transform="translate(-590.354 -435.895)" fill="#263238"/>
                </g>
              </g>
              <g id="Group_2721" data-name="Group 2721" transform="translate(12.89 0.946)">
                <g id="Group_2720" data-name="Group 2720">
                  <path id="Path_3886" data-name="Path 3886" d="M592.378,435.622c.01.025-.036.066-.1.092s-.127.027-.138,0,.036-.066.1-.092S592.368,435.6,592.378,435.622Z" transform="translate(-592.137 -435.604)" fill="#263238"/>
                </g>
              </g>
            </g>
          </g>
          <g id="Group_2755" data-name="Group 2755" transform="translate(53.664 163.053)">
            <g id="Group_2754" data-name="Group 2754">
              <g id="Group_2725" data-name="Group 2725">
                <g id="Group_2724" data-name="Group 2724">
                  <path id="Path_3887" data-name="Path 3887" d="M611.931,429.275l-.3-.67L618.806,425l1.264,2.76-.438.233c-1.957,1.02-10.023,5.049-11.549,5.25C606.38,433.465,611.931,429.275,611.931,429.275Z" transform="translate(-607.758 -424.998)" fill="#263238"/>
                </g>
              </g>
              <g id="Group_2727" data-name="Group 2727" transform="translate(0 2.547)">
                <g id="Group_2726" data-name="Group 2726">
                  <path id="Path_3888" data-name="Path 3888" d="M620.1,430.573a.794.794,0,0,1-.119.07l-.349.185-1.3.656c-1.1.546-2.626,1.281-4.33,2.056s-3.263,1.441-4.4,1.909l-1.347.545-.369.142a.719.719,0,0,1-.131.043.7.7,0,0,1,.123-.061l.362-.158,1.335-.573c1.127-.484,2.68-1.16,4.383-1.934s3.234-1.5,4.34-2.028l1.309-.629.357-.168A.775.775,0,0,1,620.1,430.573Z" transform="translate(-607.759 -430.572)" fill="#263238"/>
                </g>
              </g>
              <g id="Group_2729" data-name="Group 2729" transform="translate(1.417 6.358)">
                <g id="Group_2728" data-name="Group 2728">
                  <path id="Path_3889" data-name="Path 3889" d="M612.073,439.746a2.113,2.113,0,0,0-1.213-.821,1.29,1.29,0,0,1,1.213.821Z" transform="translate(-610.86 -438.914)" fill="#263238"/>
                </g>
              </g>
              <g id="Group_2731" data-name="Group 2731" transform="translate(3.623 4.693)">
                <g id="Group_2730" data-name="Group 2730">
                  <path id="Path_3890" data-name="Path 3890" d="M616.349,435.7c-.015.022-.174-.056-.356-.175s-.318-.234-.3-.256.174.056.356.175S616.363,435.682,616.349,435.7Z" transform="translate(-615.689 -435.27)" fill="#263238"/>
                </g>
              </g>
              <g id="Group_2733" data-name="Group 2733" transform="translate(4.092 4.337)">
                <g id="Group_2732" data-name="Group 2732">
                  <path id="Path_3891" data-name="Path 3891" d="M617.353,434.7c-.008.026-.158,0-.334-.055s-.313-.122-.3-.147.158,0,.334.055S617.361,434.678,617.353,434.7Z" transform="translate(-616.714 -434.492)" fill="#263238"/>
                </g>
              </g>
              <g id="Group_2735" data-name="Group 2735" transform="translate(4.035 3.689)">
                <g id="Group_2734" data-name="Group 2734">
                  <path id="Path_3892" data-name="Path 3892" d="M617.347,433.078c.011.024-.149.123-.358.22a.939.939,0,0,1-.4.133c-.011-.024.148-.123.357-.221A.945.945,0,0,1,617.347,433.078Z" transform="translate(-616.591 -433.072)" fill="#263238"/>
                </g>
              </g>
              <g id="Group_2737" data-name="Group 2737" transform="translate(3.868 3.15)">
                <g id="Group_2736" data-name="Group 2736">
                  <path id="Path_3893" data-name="Path 3893" d="M617.057,431.894c.018.018-.129.185-.368.315a.813.813,0,0,1-.464.14,2.523,2.523,0,0,1,.417-.225A2.605,2.605,0,0,1,617.057,431.894Z" transform="translate(-616.226 -431.892)" fill="#263238"/>
                </g>
              </g>
              <g id="Group_2739" data-name="Group 2739" transform="translate(2.173 4.289)">
                <g id="Group_2738" data-name="Group 2738">
                  <path id="Path_3894" data-name="Path 3894" d="M614.09,434.7a1.481,1.481,0,0,1-.469.209,3,3,0,0,1-.547.116,1.476,1.476,0,0,1-.338.012.278.278,0,0,1-.181-.093.2.2,0,0,1-.014-.219.94.94,0,0,1,1.173-.23.915.915,0,0,1,.294.243c.055.071.074.118.069.121a1.448,1.448,0,0,0-.393-.3.924.924,0,0,0-.517-.079.8.8,0,0,0-.54.291c-.049.089.019.163.124.175a1.535,1.535,0,0,0,.314-.007,3.482,3.482,0,0,0,.538-.093C613.905,434.768,614.084,434.687,614.09,434.7Z" transform="translate(-612.515 -434.385)" fill="#263238"/>
                </g>
              </g>
              <g id="Group_2741" data-name="Group 2741" transform="translate(3.397 3.565)">
                <g id="Group_2740" data-name="Group 2740">
                  <path id="Path_3895" data-name="Path 3895" d="M615.435,433.92a.507.507,0,0,1-.2-.3.846.846,0,0,1-.027-.4.516.516,0,0,1,.281-.415c.115-.035.382.2.4.282s-.135.042-.143.114a1.575,1.575,0,0,1-.093.383.734.734,0,0,1-.182.31c-.013-.008.055-.126.117-.332a1.813,1.813,0,0,0,.069-.37c.02-.127-.017-.325-.144-.293s-.189.212-.218.338a.844.844,0,0,0,.005.364A1.9,1.9,0,0,0,615.435,433.92Z" transform="translate(-615.195 -432.802)" fill="#263238"/>
                </g>
              </g>
              <g id="Group_2743" data-name="Group 2743" transform="translate(9.454 0.622)">
                <g id="Group_2742" data-name="Group 2742">
                  <path id="Path_3896" data-name="Path 3896" d="M630.286,426.362c.005.017-.218.075-.529.263a2.5,2.5,0,0,0-1.217,2.382c.03.362.115.577.1.582a.468.468,0,0,1-.067-.147,2.1,2.1,0,0,1-.1-.428,2.427,2.427,0,0,1,1.25-2.449,2.107,2.107,0,0,1,.4-.171A.478.478,0,0,1,630.286,426.362Z" transform="translate(-628.453 -426.361)" fill="#263238"/>
                </g>
              </g>
              <g id="Group_2745" data-name="Group 2745" transform="translate(6.291 3.61)">
                <g id="Group_2744" data-name="Group 2744">
                  <path id="Path_3897" data-name="Path 3897" d="M623.653,432.9a6.551,6.551,0,0,1-2.124.967c-.009-.027.481-.209,1.065-.477S623.639,432.876,623.653,432.9Z" transform="translate(-621.529 -432.899)" fill="#263238"/>
                </g>
              </g>
              <g id="Group_2747" data-name="Group 2747" transform="translate(9.746 2.954)">
                <g id="Group_2746" data-name="Group 2746">
                  <path id="Path_3898" data-name="Path 3898" d="M629.181,431.465c.026.01.007.118.008.249s.018.24-.008.249-.09-.1-.089-.249S629.157,431.455,629.181,431.465Z" transform="translate(-629.092 -431.464)" fill="#263238"/>
                </g>
              </g>
              <g id="Group_2749" data-name="Group 2749" transform="translate(9.909 2.042)">
                <g id="Group_2748" data-name="Group 2748">
                  <path id="Path_3899" data-name="Path 3899" d="M629.609,429.468c.025.009.013.106-.028.217s-.094.192-.119.183-.012-.106.028-.217S629.584,429.459,629.609,429.468Z" transform="translate(-629.449 -429.467)" fill="#263238"/>
                </g>
              </g>
              <g id="Group_2751" data-name="Group 2751" transform="translate(10.341 1.376)">
                <g id="Group_2750" data-name="Group 2750">
                  <path id="Path_3900" data-name="Path 3900" d="M630.752,428.022c.006.027-.091.07-.181.156s-.141.178-.167.17-.011-.136.1-.24S630.749,428,630.752,428.022Z" transform="translate(-630.393 -428.009)" fill="#263238"/>
                </g>
              </g>
              <g id="Group_2753" data-name="Group 2753" transform="translate(10.995 0.99)">
                <g id="Group_2752" data-name="Group 2752">
                  <path id="Path_3901" data-name="Path 3901" d="M632.012,427.172c.019.019-.006.075-.056.126s-.106.077-.124.059.005-.075.055-.126S631.993,427.153,632.012,427.172Z" transform="translate(-631.826 -427.166)" fill="#263238"/>
                </g>
              </g>
            </g>
          </g>
          <g id="Group_2778" data-name="Group 2778" transform="translate(24.87 39.062)">
            <g id="Group_2768" data-name="Group 2768" transform="translate(0.088)">
              <g id="Group_2767" data-name="Group 2767">
                <g id="Group_2760" data-name="Group 2760">
                  <g id="Group_2759" data-name="Group 2759">
                    <g id="Group_2758" data-name="Group 2758">
                      <g id="Group_2757" data-name="Group 2757">
                        <g id="Group_2756" data-name="Group 2756">
                          <path id="Path_3902" data-name="Path 3902" d="M575.825,185.589l-1.337-16.308,6.866.122s.318-2.4-.693-7.679a8.9,8.9,0,0,0-5.19-6.4v-.043l-.209-.055a19.62,19.62,0,0,0-6.289-1.641l-8.427.1s-6.438-.8-10,3.786c-1.373,1.768-5.62,13.867-5.62,13.867l10.115,4.872-.963-6.71s.191,4.864.812,6.406c.346.859,1.347,3.525,1.347,3.525l-.131,8.047Z" transform="translate(-544.924 -153.589)" fill="#d5d5d5"/>
                        </g>
                      </g>
                    </g>
                  </g>
                </g>
                <g id="Group_2761" data-name="Group 2761" transform="translate(25.001 9.719)">
                  <path id="Path_3903" data-name="Path 3903" d="M600.9,178.469l-1.251,5.329h11.8l-.776-8.935Z" transform="translate(-599.649 -174.864)" fill="#d5d5d5"/>
                </g>
                <g id="Group_2763" data-name="Group 2763" transform="translate(26.113 18.401)">
                  <g id="Group_2762" data-name="Group 2762">
                    <path id="Path_3904" data-name="Path 3904" d="M612.772,194.121a8.786,8.786,0,0,0-1.562-.155c-.967-.057-2.305-.1-3.784-.1s-2.818.071-3.784.148a8.425,8.425,0,0,0-1.558.192,10.545,10.545,0,0,0,1.568-.009c.966-.03,2.3-.064,3.775-.072s2.81.012,3.777.022A10.016,10.016,0,0,0,612.772,194.121Z" transform="translate(-602.083 -193.868)" fill="#263238"/>
                  </g>
                </g>
                <g id="Group_2765" data-name="Group 2765" transform="translate(25.701 9.675)">
                  <g id="Group_2764" data-name="Group 2764">
                    <path id="Path_3905" data-name="Path 3905" d="M601.223,174.768a7.089,7.089,0,0,0-.039,1.356c.009.836.039,1.99.089,3.265s.109,2.428.165,3.263a7.018,7.018,0,0,0,.144,1.348,6.979,6.979,0,0,0,.039-1.355c-.009-.836-.039-1.991-.089-3.266s-.109-2.428-.165-3.262A6.994,6.994,0,0,0,601.223,174.768Z" transform="translate(-601.181 -174.768)" fill="#263238"/>
                  </g>
                </g>
                <g id="Group_2766" data-name="Group 2766" transform="translate(15.005 14.291)" opacity="0.3">
                  <path id="Path_3906" data-name="Path 3906" d="M577.768,184.872s2.623,19.447,10,18.932c0,0,3.319-.039,4.387-2.246v-.868Z" transform="translate(-577.768 -184.872)"/>
                </g>
              </g>
            </g>
            <g id="Group_2769" data-name="Group 2769" transform="translate(24.42 10.822)" opacity="0.3">
              <path id="Path_3907" data-name="Path 3907" d="M599.6,177.277l-1.412,9.533.914,1.673,1.5-3.271-.637-.015Z" transform="translate(-598.184 -177.277)"/>
            </g>
            <g id="Group_2771" data-name="Group 2771" transform="translate(9.04 13.522)">
              <g id="Group_2770" data-name="Group 2770">
                <path id="Path_3908" data-name="Path 3908" d="M566.879,195.51a2,2,0,0,1-.2-.455c-.115-.3-.267-.734-.443-1.276a38.779,38.779,0,0,1-1.129-4.315,31.212,31.212,0,0,1-.559-4.427c-.028-.571-.036-1.033-.028-1.352a2,2,0,0,1,.034-.5c.038,0,.063.7.161,1.837a41.173,41.173,0,0,0,.624,4.393c.339,1.7.746,3.218,1.056,4.313q.217.761.37,1.3A2.006,2.006,0,0,1,566.879,195.51Z" transform="translate(-564.518 -183.188)" fill="#263238"/>
              </g>
            </g>
            <g id="Group_2773" data-name="Group 2773" transform="translate(13.773 29.489)">
              <g id="Group_2772" data-name="Group 2772">
                <path id="Path_3909" data-name="Path 3909" d="M575.488,220.082c-.063.019-.245-.4-.408-.937a2.259,2.259,0,0,1-.18-1.006c.063-.019.245.4.407.937A2.268,2.268,0,0,1,575.488,220.082Z" transform="translate(-574.879 -218.139)" fill="#263238"/>
              </g>
            </g>
            <g id="Group_2775" data-name="Group 2775" transform="translate(15.131 28.507)">
              <g id="Group_2774" data-name="Group 2774">
                <path id="Path_3910" data-name="Path 3910" d="M578.122,218.84a4.212,4.212,0,0,1-.042-2.851,92.441,92.441,0,0,0,.042,2.851Z" transform="translate(-577.851 -215.99)" fill="#263238"/>
              </g>
            </g>
            <g id="Group_2777" data-name="Group 2777" transform="translate(0 17.642)">
              <g id="Group_2776" data-name="Group 2776">
                <path id="Path_3911" data-name="Path 3911" d="M555.14,197.409c-.03.059-2.384-1.058-5.257-2.494s-5.181-2.649-5.152-2.707,2.383,1.058,5.258,2.494S555.169,197.351,555.14,197.409Z" transform="translate(-544.73 -192.206)" fill="#263238"/>
              </g>
            </g>
          </g>
          <g id="Group_2827" data-name="Group 2827" transform="translate(34.716 15.374)">
            <g id="Group_2809" data-name="Group 2809" transform="translate(0 4.222)">
              <g id="Group_2808" data-name="Group 2808" transform="translate(0 0)">
                <g id="Group_2807" data-name="Group 2807">
                  <g id="Group_2806" data-name="Group 2806">
                    <g id="Group_2805" data-name="Group 2805">
                      <g id="Group_2781" data-name="Group 2781">
                        <g id="Group_2780" data-name="Group 2780">
                          <g id="Group_2779" data-name="Group 2779">
                            <path id="Path_3912" data-name="Path 3912" d="M572.409,130.7c.052-2.311.065-4.745.065-4.745s-2.964-.571-3.481-4.472c-.493-3.72.885-12.448.885-12.448h0a10.419,10.419,0,0,1,11.8,3.356h0l-.736,18.764a4.028,4.028,0,0,1-4.359,3.731h0A4.255,4.255,0,0,1,572.409,130.7Z" transform="translate(-568.887 -108.375)" fill="#f9d3cf"/>
                          </g>
                        </g>
                      </g>
                      <g id="Group_2804" data-name="Group 2804" transform="translate(3.587 16.331)">
                        <g id="Group_2803" data-name="Group 2803">
                          <g id="Group_2802" data-name="Group 2802">
                            <path id="Path_3918" data-name="Path 3918" d="M576.739,145.376a9.884,9.884,0,0,0,5.238-1.253s-1.331,2.635-5.209,2.172Z" transform="translate(-576.739 -144.123)" fill="#a36957"/>
                          </g>
                        </g>
                      </g>
                    </g>
                  </g>
                </g>
              </g>
            </g>
            <g id="Group_2826" data-name="Group 2826" transform="translate(1.955)">
              <g id="Group_2817" data-name="Group 2817">
                <path id="Path_3923" data-name="Path 3923" d="M580.79,113.373c-.462,1.071-1.59,1.9-1.434,3.052.1.746.58,1.442.487,2.189-.117.938-1.092,1.589-1.23,2.524-.169,1.148.947,2.039,1.393,3.11.649,1.559-.181,3.313-.2,5a5.363,5.363,0,0,0,4.748,5.216,2.9,2.9,0,0,0,2.758-1.125,11.475,11.475,0,0,0,.625-2.5c.4-1.222,1.564-2.117,1.81-3.38.448-2.3-2.333-4.205-2.15-6.542a16.214,16.214,0,0,1,.957-2.836,4.156,4.156,0,0,0-.816-3.7c-.686-.816-1.682-1.353-2.266-2.245a9.839,9.839,0,0,1-.936-3.477,8.759,8.759,0,0,0-13.912-5.131,2.844,2.844,0,0,0,2.426,3.514c3.091.5,4.523-.078,4.872,1.161a3.275,3.275,0,0,0,.926,2.829C580.124,112.422,581.325,112.133,580.79,113.373Z" transform="translate(-570.563 -101.736)" fill="#263238"/>
              </g>
              <g id="Group_2819" data-name="Group 2819" transform="translate(10.015 8.421)">
                <g id="Group_2818" data-name="Group 2818">
                  <path id="Path_3924" data-name="Path 3924" d="M597.629,144.268a1.269,1.269,0,0,1-.282-.029,4.181,4.181,0,0,1-.786-.212,5.545,5.545,0,0,1-2.391-1.77,6.263,6.263,0,0,1-1.017-1.81,7.261,7.261,0,0,1-.415-2.345,9.546,9.546,0,0,1,.329-2.609,11.382,11.382,0,0,1,.437-1.322,13.162,13.162,0,0,0,.5-1.313,2.468,2.468,0,0,0,0-1.34,7.3,7.3,0,0,0-.519-1.251,8.337,8.337,0,0,1-.532-1.238,2.675,2.675,0,0,1-.1-1.313,9.288,9.288,0,0,1,1.013-2.151,4.092,4.092,0,0,0,.413-1.946,4.6,4.6,0,0,0-1.019-2.695,8.164,8.164,0,0,0-.776-.756,3.157,3.157,0,0,1,.846.7,4.582,4.582,0,0,1,1.117,2.748,4.227,4.227,0,0,1-.4,2.039,9.463,9.463,0,0,0-.975,2.107,3.85,3.85,0,0,0,.622,2.406,7.429,7.429,0,0,1,.539,1.292,2.71,2.71,0,0,1,.006,1.464,13.158,13.158,0,0,1-.511,1.339,11.232,11.232,0,0,0-.432,1.294,9.449,9.449,0,0,0-.335,2.546,6.593,6.593,0,0,0,1.345,4.054,5.637,5.637,0,0,0,2.293,1.789C597.241,144.2,597.635,144.241,597.629,144.268Z" transform="translate(-592.485 -120.169)" fill="#455a64"/>
                </g>
              </g>
              <g id="Group_2821" data-name="Group 2821" transform="translate(1.105 1.378)">
                <g id="Group_2820" data-name="Group 2820">
                  <path id="Path_3925" data-name="Path 3925" d="M586.581,112.841a3.241,3.241,0,0,1-.681.1,7.1,7.1,0,0,1-1.882-.049,3.577,3.577,0,0,1-2.374-1.441,7.74,7.74,0,0,1-.623-1.534,2.534,2.534,0,0,0-1.041-1.284,7.41,7.41,0,0,0-3.2-.836,5.565,5.565,0,0,1-2.663-.829,2.64,2.64,0,0,1-1.09-1.526,1.641,1.641,0,0,1-.035-.515.526.526,0,0,1,.037-.176,3.348,3.348,0,0,0,.088.669,2.63,2.63,0,0,0,1.1,1.41,5.548,5.548,0,0,0,2.592.749,7.421,7.421,0,0,1,3.308.855,2.749,2.749,0,0,1,1.129,1.4,7.913,7.913,0,0,0,.591,1.5,3.451,3.451,0,0,0,2.222,1.394,7.994,7.994,0,0,0,1.844.122A4.633,4.633,0,0,1,586.581,112.841Z" transform="translate(-572.982 -104.752)" fill="#455a64"/>
                </g>
              </g>
              <g id="Group_2823" data-name="Group 2823" transform="translate(1.943 0.785)">
                <g id="Group_2822" data-name="Group 2822">
                  <path id="Path_3926" data-name="Path 3926" d="M586.443,108.416a1.39,1.39,0,0,1-.536.079,3.276,3.276,0,0,1-2.291-.915,4.348,4.348,0,0,1-.708-.946,3.931,3.931,0,0,0-1.663-1.906,5.464,5.464,0,0,0-2.559-.225,7.823,7.823,0,0,1-2.185-.018,2.721,2.721,0,0,1-1.348-.6,1.55,1.55,0,0,1-.269-.3c-.052-.077-.075-.119-.068-.124s.128.147.4.354a2.806,2.806,0,0,0,1.317.51,8.232,8.232,0,0,0,2.138-.034,5.5,5.5,0,0,1,2.675.226,2.641,2.641,0,0,1,1.09.906,12.087,12.087,0,0,1,.665,1.107,4.287,4.287,0,0,0,.658.916,3.143,3.143,0,0,0,.786.58,3.389,3.389,0,0,0,1.369.382C586.25,108.422,586.441,108.4,586.443,108.416Z" transform="translate(-574.816 -103.454)" fill="#455a64"/>
                </g>
              </g>
              <g id="Group_2825" data-name="Group 2825" transform="translate(13.298 9.7)">
                <g id="Group_2824" data-name="Group 2824">
                  <path id="Path_3927" data-name="Path 3927" d="M602.9,144.8c-.023-.011.122-.3.291-.867a7.861,7.861,0,0,0,.3-2.449,7.523,7.523,0,0,0-.974-3.488c-.334-.6-.842-1.132-1.255-1.789a3.232,3.232,0,0,1-.461-1.1,2.492,2.492,0,0,1,.1-1.233,14.427,14.427,0,0,0,.814-2.178,3,3,0,0,0-.593-1.98,9.116,9.116,0,0,1-.489-.908,3.261,3.261,0,0,1-.259-.954,8.457,8.457,0,0,1,.052-1.742,4.607,4.607,0,0,0-.217-2.428,2.2,2.2,0,0,0-.539-.715s.021.005.055.026a.916.916,0,0,1,.146.1,1.689,1.689,0,0,1,.422.544,4.526,4.526,0,0,1,.3,2.482,8.583,8.583,0,0,0-.023,1.7,4.328,4.328,0,0,0,.74,1.774,6.032,6.032,0,0,1,.5.971,2.3,2.3,0,0,1,.137,1.153,13.652,13.652,0,0,1-.818,2.218,2.267,2.267,0,0,0-.095,1.118,3.02,3.02,0,0,0,.425,1.023c.392.631.9,1.175,1.247,1.8a7.544,7.544,0,0,1,.952,3.594,7.386,7.386,0,0,1-.384,2.481,5.372,5.372,0,0,1-.263.631A.9.9,0,0,1,602.9,144.8Z" transform="translate(-599.67 -122.968)" fill="#455a64"/>
                </g>
              </g>
            </g>
          </g>
          <g id="Group_2837" data-name="Group 2837" transform="translate(31.254 69.726)">
            <g id="Group_2828" data-name="Group 2828" transform="translate(0.074 0.117)">
              <path id="Path_3928" data-name="Path 3928" d="M562.123,283.153s-3.077-29.166-3.253-39.943,4.845-21.41,4.845-21.41l19.682-.832s3.89,10.935,3.96,15.528c.136,8.926-2.371,17.741-2.083,24.821l.658,21.837" transform="translate(-558.865 -220.967)" fill="#263238"/>
            </g>
            <g id="Group_2830" data-name="Group 2830" transform="translate(2.685 26.447)">
              <g id="Group_2829" data-name="Group 2829">
                <path id="Path_3929" data-name="Path 3929" d="M589.7,278.6a2.641,2.641,0,0,1-.321.243l-.179.127c-.062.052-.122.118-.191.184a2.936,2.936,0,0,0-.438.491,10.894,10.894,0,0,0-1.54,3.9,13.116,13.116,0,0,1-1,2.775,5,5,0,0,1-.437.691c-.085.11-.163.227-.257.332l-.3.3a4.894,4.894,0,0,1-1.48.95c-1.1.483-2.345.712-3.482,1.282a5.5,5.5,0,0,0-2.526,2.879c-.554,1.238-.89,2.538-1.353,3.751a6.8,6.8,0,0,1-2.055,3.116,5.64,5.64,0,0,1-3.221,1.01c-1.06.062-2.041.031-2.921.164a4.615,4.615,0,0,0-2.2.831,3.068,3.068,0,0,0-1.024,1.441,2.163,2.163,0,0,0-.076,1.12c.051.257.123.38.107.386a1.172,1.172,0,0,1-.154-.375,2.127,2.127,0,0,1,.034-1.159,3.132,3.132,0,0,1,1.029-1.518,4.708,4.708,0,0,1,2.261-.894c.9-.146,1.889-.125,2.933-.2a5.467,5.467,0,0,0,3.1-.987,6.614,6.614,0,0,0,1.97-3.025c.454-1.2.788-2.5,1.354-3.766a5.722,5.722,0,0,1,2.637-2.99c1.182-.587,2.426-.809,3.5-1.275a4.711,4.711,0,0,0,1.425-.9l.291-.286c.091-.1.166-.213.249-.317a4.813,4.813,0,0,0,.427-.663,13.179,13.179,0,0,0,1.008-2.726,10.611,10.611,0,0,1,1.629-3.916,2.9,2.9,0,0,1,.464-.486c.073-.064.137-.128.2-.179l.189-.119A2.551,2.551,0,0,1,589.7,278.6Z" transform="translate(-564.582 -278.602)" fill="#fafafa"/>
              </g>
            </g>
            <g id="Group_2832" data-name="Group 2832" transform="translate(0.806 12.951)">
              <g id="Group_2831" data-name="Group 2831">
                <path id="Path_3930" data-name="Path 3930" d="M587.582,249.059a2.343,2.343,0,0,1,.026.391,4.854,4.854,0,0,1-.137,1.116A7.219,7.219,0,0,1,585.248,254a13.2,13.2,0,0,1-2.305,1.683c-.882.524-1.855,1.022-2.852,1.585a14.908,14.908,0,0,0-2.917,2.051,11.267,11.267,0,0,0-2.21,3.106,28.658,28.658,0,0,1-1.916,3.376,8.066,8.066,0,0,1-1.249,1.382,7.877,7.877,0,0,1-1.486.989,18.4,18.4,0,0,1-3.058,1.172c-.977.3-1.888.57-2.684.9a10.474,10.474,0,0,0-2.047,1.1,6.37,6.37,0,0,0-1.285,1.185,6.127,6.127,0,0,0-.771,1.281,2.384,2.384,0,0,1,.127-.37,4.53,4.53,0,0,1,.571-.968,6.249,6.249,0,0,1,1.281-1.236,10.363,10.363,0,0,1,2.06-1.144c.8-.348,1.719-.626,2.69-.936a18.489,18.489,0,0,0,3.016-1.178,7.7,7.7,0,0,0,1.439-.968,7.871,7.871,0,0,0,1.208-1.345,28.96,28.96,0,0,0,1.9-3.351,11.441,11.441,0,0,1,2.26-3.163,14.969,14.969,0,0,1,2.97-2.073c1.006-.561,1.98-1.052,2.859-1.564a13.269,13.269,0,0,0,2.292-1.638,7.278,7.278,0,0,0,2.247-3.337A7.053,7.053,0,0,0,587.582,249.059Z" transform="translate(-560.467 -249.059)" fill="#fafafa"/>
              </g>
            </g>
            <g id="Group_2834" data-name="Group 2834">
              <g id="Group_2833" data-name="Group 2833">
                <path id="Path_3931" data-name="Path 3931" d="M558.881,244.616a.3.3,0,0,1-.04-.089,1.957,1.957,0,0,1-.043-1.367,4.478,4.478,0,0,1,2.893-2.668c.81-.278,1.73-.446,2.687-.7a5.033,5.033,0,0,0,3.723-2.77,14.048,14.048,0,0,0,.682-1.641,17.88,17.88,0,0,1,1.448-3.5,5.594,5.594,0,0,1,2.98-2.317,27.262,27.262,0,0,1,3.419-.867,11.324,11.324,0,0,0,2.973-1.012,6.224,6.224,0,0,0,2.012-1.813,6.794,6.794,0,0,0,1.279-3.7,10.609,10.609,0,0,0-.1-1.46,4.827,4.827,0,0,1,.189,1.462,6.749,6.749,0,0,1-1.234,3.8,6.351,6.351,0,0,1-2.053,1.887,11.4,11.4,0,0,1-3.021,1.054,27.759,27.759,0,0,0-3.387.871,5.37,5.37,0,0,0-2.859,2.225A17.9,17.9,0,0,0,569,235.461a14.094,14.094,0,0,1-.7,1.668,5.225,5.225,0,0,1-3.875,2.857c-.971.245-1.885.4-2.684.666a4.427,4.427,0,0,0-2.858,2.535,2.231,2.231,0,0,0-.087,1.059C558.851,244.486,558.891,244.612,558.881,244.616Z" transform="translate(-558.703 -220.711)" fill="#fafafa"/>
              </g>
            </g>
            <g id="Group_2836" data-name="Group 2836" transform="translate(3.314 48.566)">
              <g id="Group_2835" data-name="Group 2835">
                <path id="Path_3932" data-name="Path 3932" d="M588.872,327.019a1.3,1.3,0,0,1,.031.286,3.049,3.049,0,0,1-.084.825,4.69,4.69,0,0,1-1.727,2.468,7.7,7.7,0,0,1-1.811,1.076,23.957,23.957,0,0,1-2.275.786,18.791,18.791,0,0,0-2.471.9,7.136,7.136,0,0,0-2.249,1.64c-.667.7-1.242,1.461-1.88,2.134a8.6,8.6,0,0,1-2.105,1.648,9.251,9.251,0,0,1-4.345,1.13,8.616,8.616,0,0,1-2.99-.5,5.473,5.473,0,0,1-.759-.325,1.3,1.3,0,0,1-.251-.139,1.329,1.329,0,0,1,.271.1,7.362,7.362,0,0,0,.768.281,9.018,9.018,0,0,0,2.958.416,9.226,9.226,0,0,0,4.241-1.153,8.47,8.47,0,0,0,2.043-1.616c.625-.663,1.2-1.426,1.877-2.139a7.328,7.328,0,0,1,2.321-1.686,18.482,18.482,0,0,1,2.506-.9c.808-.246,1.575-.474,2.262-.759a7.661,7.661,0,0,0,1.784-1.026,4.714,4.714,0,0,0,1.742-2.36A5.409,5.409,0,0,0,588.872,327.019Z" transform="translate(-565.957 -327.019)" fill="#fafafa"/>
              </g>
            </g>
          </g>
          <g id="Group_2840" data-name="Group 2840" transform="translate(35.638 34.786)">
            <path id="Path_3933" data-name="Path 3933" d="M587.9,167.224l-3.806.09a6.224,6.224,0,0,1-.861,2.159,65.707,65.707,0,0,1-6.262-15.9c.089-.3.195-.626.327-.993a4.218,4.218,0,0,0-.05-1.673c-.107-.662-.292-1.553-.348-1.966-.169-1.257-.372-1.454-.81-1.312-.6.193.245,3.53-.244,3.6-.263.039-.584-1.1-.677-2.042s-.517-3.823-.827-4.015c-.454-.282-.851.164-.735,1.1s.263,3.764-.233,3.8-.9-4.745-.9-4.745.077-1.041-.5-1.016c-1.035.045-.226,5.088-.138,5.565.062.333-.476.393-.523.033s-.3-4.784-1.352-4.748c-.809.027.626,4.155.172,5.113s-.77-3.25-1.542-3.192c-.287.021-.5.078.028,2.458a53.716,53.716,0,0,0,1.846,5.58c1.224,6.6,6.6,27.719,15.017,23.854,4.712-2.163,6.624-11.75,6.624-11.75Z" transform="translate(-568.301 -144.274)" fill="#ffbe9d"/>
            <g id="Group_2839" data-name="Group 2839" transform="translate(3.17)">
              <g id="Group_2838" data-name="Group 2838">
                <path id="Path_3934" data-name="Path 3934" d="M575.431,150.156a.259.259,0,0,0,.11-.015.244.244,0,0,0,.172-.264c-.011-.284-.055-.7-.121-1.231a17.776,17.776,0,0,1-.21-1.947c-.006-.382,0-.794.026-1.229a4.278,4.278,0,0,1,.067-.658c.036-.207.174-.444.334-.415l.018,0h.008c.163-.007.29.119.342.313a1.8,1.8,0,0,1,.06.611v.015a36.973,36.973,0,0,0,.488,3.815c.037.17.075.342.128.515a2.454,2.454,0,0,0,.095.262.816.816,0,0,0,.078.136.248.248,0,0,0,.191.12.342.342,0,0,0,.287-.24,1.389,1.389,0,0,0,.085-.281,4.23,4.23,0,0,0,.074-.557,16.665,16.665,0,0,0-.031-2.285,5.289,5.289,0,0,1-.048-1.144.635.635,0,0,1,.225-.426.247.247,0,0,1,.2-.025.465.465,0,0,1,.109.047.148.148,0,0,1,.05.068,5.71,5.71,0,0,1,.317,1.148c.081.4.151.816.216,1.233s.123.838.173,1.263a8.774,8.774,0,0,0,.211,1.3,4.308,4.308,0,0,0,.206.646,1.15,1.15,0,0,0,.188.323.271.271,0,0,0,.273.1.292.292,0,0,0,.187-.205,2.243,2.243,0,0,0,.048-.711c-.01-.227-.028-.45-.048-.675-.032-.385-.069-.765-.082-1.14a3.822,3.822,0,0,1,.014-.55.879.879,0,0,1,.055-.238.216.216,0,0,1,.044-.068c.007-.007.012,0,.018-.011l.059-.017c.3-.125.4.3.484.636s.115.72.186,1.081c.121.72.274,1.434.355,2.122a2.456,2.456,0,0,1-.04.983l-.321.98-.01.029.007.031a52.853,52.853,0,0,0,2.044,6.605c.724,1.949,1.446,3.634,2.085,5.012s1.207,2.441,1.6,3.166l.475.817a1.941,1.941,0,0,0,.176.275,1.908,1.908,0,0,0-.14-.295l-.44-.835c-.371-.736-.92-1.806-1.535-3.191s-1.321-3.071-2.028-5.02a54.306,54.306,0,0,1-2-6.584l0,.06.32-.967a2.655,2.655,0,0,0,.056-1.093c-.082-.715-.231-1.408-.35-2.132-.07-.357-.114-.724-.187-1.1a2.174,2.174,0,0,0-.186-.566.551.551,0,0,0-.252-.254.563.563,0,0,0-.36-.015l-.077.022a.392.392,0,0,0-.1.059.444.444,0,0,0-.116.162,1.126,1.126,0,0,0-.076.312,4.07,4.07,0,0,0-.015.589c.013.387.05.771.083,1.154.019.223.037.445.047.664a2.147,2.147,0,0,1-.034.614c-.011.048-.034.039-.008.062v0c0-.015,0,.023,0,.017v0a.029.029,0,0,1,0-.016s.012-.02.006-.021a.067.067,0,0,1-.027-.025.975.975,0,0,1-.14-.248,4.21,4.21,0,0,1-.194-.606,8.636,8.636,0,0,1-.206-1.267c-.051-.43-.111-.853-.177-1.273s-.137-.834-.221-1.244a5.675,5.675,0,0,0-.347-1.22.41.41,0,0,0-.143-.16.71.71,0,0,0-.17-.072.5.5,0,0,0-.386.053.855.855,0,0,0-.338.595,2.162,2.162,0,0,0-.008.626c.023.2.042.387.057.579a16.585,16.585,0,0,1,.041,2.25,4.052,4.052,0,0,1-.066.528,1.174,1.174,0,0,1-.069.237.3.3,0,0,1-.05.085c-.016.038-.031-.009-.03.053.023-.047,0-.021-.017-.06a.654.654,0,0,1-.054-.1,2.286,2.286,0,0,1-.086-.234c-.051-.162-.09-.33-.127-.5a37.947,37.947,0,0,1-.516-3.785v.015a1.958,1.958,0,0,0-.075-.679.691.691,0,0,0-.179-.3.474.474,0,0,0-.339-.123l.025,0a.394.394,0,0,0-.394.189.98.98,0,0,0-.14.355,4.258,4.258,0,0,0-.061.686c-.016.439-.02.853-.007,1.239a16.284,16.284,0,0,0,.252,1.956c.079.531.139.943.164,1.221a.216.216,0,0,1-.133.239C575.467,150.146,575.43,150.151,575.431,150.156Z" transform="translate(-575.241 -144.228)" fill="#ffbe9d"/>
              </g>
            </g>
          </g>
          <path id="Path_3935" data-name="Path 3935" d="M499.538,208.228a9.812,9.812,0,0,0-2.646.3c-2.359.621-6.432,3.089-6.6,6.138h2.958s-1.657,3.526-1.17,3.2a38.06,38.06,0,0,0,3.777-3.4Z" transform="translate(-490.291 -144.202)" fill="#ffbe9d"/>
        </g>
      </g>
      <g id="Folder" transform="translate(390.398 372.562)">
        <g id="Group_2853" data-name="Group 2853">
          <g id="Group_2849" data-name="Group 2849" transform="translate(39.468 15.549)">
            <path id="Path_3939" data-name="Path 3939" d="M277.237,227.877l-16.154,83.053L258.968,321.8l107.844-.532c4.84-.024,9.129-4.321,10.686-10.706l19.123-78.411c1.182-4.847-1.412-9.888-5.086-9.884l-109.15.115C279.975,222.387,277.868,224.636,277.237,227.877Z" transform="translate(-258.968 -222.27)" fill="#dbdbdb"/>
          </g>
          <g id="Group_2851" data-name="Group 2851">
            <path id="Path_3941" data-name="Path 3941" d="M309.542,286.817l-11.418-92.012a7.242,7.242,0,0,0-7.017-6.571l-25.038.082a6.823,6.823,0,0,0-4.946,2.193l-11.889,12.638-69.635.364c-4.255.022-7.525,4.049-6.96,8.573l10.6,85.043a7.242,7.242,0,0,0,7.008,6.566l121.359-.24c13.517.28,14.807-3.712,14.807-3.712C310.923,303.175,309.543,286.828,309.542,286.817Z" transform="translate(-172.575 -188.235)" fill="#ebebeb"/>
          </g>
        </g>
      </g>
      <g id="Speech_Bubble" data-name="Speech Bubble" transform="translate(529.995 313.125)">
        <g id="Group_2862" data-name="Group 2862">
          <g id="Group_2858" data-name="Group 2858" transform="translate(10.945 8.393)">
            <g id="Group_2855" data-name="Group 2855">
              <g id="Group_2854" data-name="Group 2854">
                <path id="Path_3944" data-name="Path 3944" d="M505.857,88.967a.853.853,0,0,1-.516-.747l-.183-4.241a.852.852,0,0,1,1.048-.866,2.649,2.649,0,0,0,2.063-.408,2.386,2.386,0,0,0,1.066-1.562,2.442,2.442,0,0,0-.513-1.835,2.721,2.721,0,0,0-1.8-1.084,3.194,3.194,0,0,0-3.243,2.3.852.852,0,1,1-1.645-.447,4.911,4.911,0,0,1,5.083-3.548,4.4,4.4,0,0,1,2.965,1.75,4.15,4.15,0,0,1,.836,3.137,4.094,4.094,0,0,1-1.8,2.705,4.465,4.465,0,0,1-2.312.755l.142,3.269a.853.853,0,0,1-1.187.82Z" transform="translate(-502.103 -76.504)" fill="#8f8f8f"/>
              </g>
            </g>
            <g id="Group_2857" data-name="Group 2857" transform="translate(3.611 13.546)">
              <g id="Group_2856" data-name="Group 2856">
                <path id="Path_3945" data-name="Path 3945" d="M511.4,106.8a.7.7,0,1,1-.743-.648A.7.7,0,0,1,511.4,106.8Z" transform="translate(-510.006 -106.155)" fill="#8f8f8f"/>
              </g>
            </g>
          </g>
          <g id="Group_2861" data-name="Group 2861">
            <g id="Group_2860" data-name="Group 2860">
              <g id="Group_2859" data-name="Group 2859">
                <path id="Path_3946" data-name="Path 3946" d="M478.163,73.008a1.769,1.769,0,0,0,.042-.278c.021-.2.051-.469.09-.817a9.607,9.607,0,0,1,.221-1.313c.06-.256.091-.54.185-.828s.184-.6.284-.922a15.708,15.708,0,0,1,2.272-4.352,15.32,15.32,0,0,1,14.162-5.963c.35.033.7.127,1.047.188a7.18,7.18,0,0,1,1.051.254,14.512,14.512,0,0,1,4.086,1.852,15.282,15.282,0,0,1,6.039,7.583,14.918,14.918,0,0,1,.9,5.212,14.652,14.652,0,0,1-.956,5.364l-.206.522-.027.069.028.064,3.359,7.736.192-.218-6.842-2.629L504,84.5l-.066.064a15.3,15.3,0,0,1-6.461,3.73,15.194,15.194,0,0,1-12.335-1.915,15.653,15.653,0,0,1-3.852-3.587,15.15,15.15,0,0,1-2.922-7.005q-.082-.669-.144-1.188-.013-.513-.023-.873c-.007-.224-.013-.4-.017-.535a.933.933,0,0,0-.015-.182,1,1,0,0,0-.011.181c0,.134,0,.311-.007.536q0,.363,0,.878l.121,1.2a16.65,16.65,0,0,0,.781,3.226,16.818,16.818,0,0,0,2.095,3.883,15.771,15.771,0,0,0,3.879,3.663,15.386,15.386,0,0,0,12.522,2,15.548,15.548,0,0,0,6.591-3.783l-.151.032,6.838,2.64.344.133-.152-.351-3.354-7.738v.133l.211-.533a14.962,14.962,0,0,0,.976-5.484,15.237,15.237,0,0,0-.921-5.326,15.557,15.557,0,0,0-6.172-7.724,14.766,14.766,0,0,0-4.165-1.873,7.421,7.421,0,0,0-1.07-.254c-.359-.061-.71-.155-1.066-.188a15.05,15.05,0,0,0-9.5,1.858,15.371,15.371,0,0,0-4.832,4.271,15.636,15.636,0,0,0-2.25,4.423q-.144.495-.272.935c-.09.291-.117.579-.173.837a9.033,9.033,0,0,0-.193,1.325c-.025.349-.045.623-.059.822A1.936,1.936,0,0,0,478.163,73.008Z" transform="translate(-478.144 -58.132)" fill="#263238"/>
              </g>
            </g>
          </g>
        </g>
      </g>
      <g id="Group_2863" data-name="Group 2863" transform="translate(445.377 414.164)">
        <g id="Group_1367" data-name="Group 1367" transform="translate(1.602)">
          <g id="Group_1365" data-name="Group 1365">
            <g id="Group_1363" data-name="Group 1363">
              <path id="Path_2095" data-name="Path 2095" d="M231.277,235.419l-2.1-29.19-6.369-3.834H205.283l2.378,33.024Z" transform="translate(-204.978 -202.09)" fill="#d5d5d5"/>
              <path id="Path_2096" data-name="Path 2096" d="M231.1,235.546H207.482a.306.306,0,0,1-.305-.284L204.8,202.238a.305.305,0,0,1,.3-.327h17.522a.306.306,0,0,1,.158.043l6.369,3.834a.306.306,0,0,1,.147.239l2.1,29.19a.305.305,0,0,1-.3.328Zm-23.331-.611h23l-2.067-28.7-6.161-3.709H205.432Z" transform="translate(-204.799 -201.911)" fill="#d5d5d5"/>
            </g>
            <g id="Group_1364" data-name="Group 1364" transform="translate(17.522 0)">
              <path id="Path_2097" data-name="Path 2097" d="M239.457,206.229l-6.369-3.834,2.338,5.079Z" transform="translate(-232.782 -202.09)" fill="#d5d5d5"/>
              <path id="Path_2098" data-name="Path 2098" d="M235.247,207.6a.3.3,0,0,1-.277-.178l-2.339-5.079a.305.305,0,0,1,.435-.389l6.369,3.834a.305.305,0,0,1-.067.553l-4.031,1.245A.315.315,0,0,1,235.247,207.6Zm-1.647-4.611,1.812,3.936,3.123-.965Z" transform="translate(-232.603 -201.911)" fill="#d5d5d5"/>
            </g>
          </g>
          <g id="Group_1366" data-name="Group 1366" transform="translate(5.971 13.85)">
            <path id="Path_2099" data-name="Path 2099" d="M219.4,225.223a1.224,1.224,0,0,1-1.238,1.334,1.456,1.456,0,0,1-1.431-1.334,1.224,1.224,0,0,1,1.238-1.333A1.456,1.456,0,0,1,219.4,225.223Z" transform="translate(-215.182 -223.889)" fill="#d5d5d5"/>
            <path id="Path_2100" data-name="Path 2100" d="M233.137,225.223a1.225,1.225,0,0,1-1.238,1.334,1.456,1.456,0,0,1-1.43-1.334,1.224,1.224,0,0,1,1.238-1.333A1.456,1.456,0,0,1,233.137,225.223Z" transform="translate(-220.261 -223.889)" fill="#d5d5d5"/>
            <path id="Path_2101" data-name="Path 2101" d="M229.591,236.927a.305.305,0,0,1-.3-.284c-.154-2.145-3.519-3.89-7.5-3.89-2.637,0-5.006.784-6.18,2.046a2.355,2.355,0,0,0-.718,1.8.305.305,0,0,1-.609.043,2.981,2.981,0,0,1,.88-2.259c1.286-1.383,3.826-2.242,6.627-2.242,4.367,0,7.928,1.958,8.109,4.457a.305.305,0,0,1-.283.326Z" transform="translate(-214.273 -226.941)" fill="#d5d5d5"/>
          </g>
          <path id="Path_2102" data-name="Path 2102" d="M212.988,220.512a.306.306,0,0,1-.224-.514l1.338-1.442a.305.305,0,0,1,.448.415l-1.338,1.442A.3.3,0,0,1,212.988,220.512Z" transform="translate(-207.714 -208.031)" fill="#d5d5d5"/>
          <path id="Path_2103" data-name="Path 2103" d="M236.5,220.512a.3.3,0,0,1-.208-.083l-1.546-1.442a.305.305,0,1,1,.417-.446l1.546,1.442a.305.305,0,0,1-.209.529Z" transform="translate(-215.837 -208.031)" fill="#d5d5d5"/>
        </g>
        <g id="Group_1368" data-name="Group 1368" transform="translate(0 39.77)">
          <path id="Path_2104" data-name="Path 2104" d="M202.257,265.153h1.424l2.056,2.731-.2-2.731h1.438l.355,4.936H205.9l-2.043-2.71.195,2.71h-1.434Z" transform="translate(-202.257 -265.069)" fill="#d5d5d5"/>
          <path id="Path_2105" data-name="Path 2105" d="M211.328,267.574a2.157,2.157,0,0,1,2.365-2.555,2.754,2.754,0,0,1,1.947.662,2.68,2.68,0,0,1,.8,1.853,2.929,2.929,0,0,1-.189,1.419,1.87,1.87,0,0,1-.78.862,2.652,2.652,0,0,1-1.35.308,3.29,3.29,0,0,1-1.4-.266,2.311,2.311,0,0,1-.948-.842A2.955,2.955,0,0,1,211.328,267.574Zm1.526.007a1.753,1.753,0,0,0,.355,1.074,1.01,1.01,0,0,0,.779.327.872.872,0,0,0,.738-.32,1.747,1.747,0,0,0,.187-1.148,1.625,1.625,0,0,0-.355-1.018,1.034,1.034,0,0,0-.786-.321.858.858,0,0,0-.717.326A1.584,1.584,0,0,0,212.853,267.581Z" transform="translate(-205.607 -265.019)" fill="#d5d5d5"/>
          <path id="Path_2106" data-name="Path 2106" d="M224.152,265.153h2.266a2.818,2.818,0,0,1,1.1.181,1.958,1.958,0,0,1,.719.522,2.357,2.357,0,0,1,.447.792,3.774,3.774,0,0,1,.19.956,3.234,3.234,0,0,1-.092,1.228,1.838,1.838,0,0,1-.447.73,1.487,1.487,0,0,1-.659.393,3.438,3.438,0,0,1-.9.134h-2.266Zm1.606,1.117.195,2.7h.374a1.52,1.52,0,0,0,.672-.106.651.651,0,0,0,.29-.371,2.264,2.264,0,0,0,.052-.857,1.759,1.759,0,0,0-.333-1.074,1.156,1.156,0,0,0-.87-.29Z" transform="translate(-210.354 -265.069)" fill="#d5d5d5"/>
          <path id="Path_2107" data-name="Path 2107" d="M235.411,269.274h-1.732l-.182.815H231.94l1.5-4.936H235.1l2.21,4.936h-1.6Zm-.393-1.067-.673-1.775-.411,1.775Z" transform="translate(-213.234 -265.069)" fill="#d5d5d5"/>
          <path id="Path_2108" data-name="Path 2108" d="M239.369,265.153h4.636l.088,1.219h-1.555l.268,3.717H241.28l-.267-3.717h-1.556Z" transform="translate(-215.981 -265.069)" fill="#d5d5d5"/>
          <path id="Path_2109" data-name="Path 2109" d="M250.328,269.274H248.6l-.182.815h-1.558l1.5-4.936h1.664l2.211,4.936h-1.6Zm-.393-1.067-.672-1.775-.412,1.775Z" transform="translate(-218.75 -265.069)" fill="#d5d5d5"/>
        </g>
      </g>
    </g>
  </g>
</svg>
