<svg width="81" height="81" viewBox="0 0 81 81" fill="none" xmlns="http://www.w3.org/2000/svg">
<rect x="0.541992" y="0.962891" width="80" height="80" rx="8" fill="#EFEFEF"/>
<path d="M50.2087 45.9629H46.8753V49.2962H50.2087M50.2087 39.2962H46.8753V42.6296H50.2087M53.542 52.6296H40.2087V49.2962H43.542V45.9629H40.2087V42.6296H43.542V39.2962H40.2087V35.9629H53.542M36.8753 32.6296H33.542V29.2962H36.8753M36.8753 39.2962H33.542V35.9629H36.8753M36.8753 45.9629H33.542V42.6296H36.8753M36.8753 52.6296H33.542V49.2962H36.8753M30.2087 32.6296H26.8753V29.2962H30.2087M30.2087 39.2962H26.8753V35.9629H30.2087M30.2087 45.9629H26.8753V42.6296H30.2087M30.2087 52.6296H26.8753V49.2962H30.2087M40.2087 32.6296V25.9629H23.542V55.9629H56.8753V32.6296H40.2087Z" fill="black"/>
</svg>
