<svg width="150" height="150" viewBox="0 0 150 150" fill="none" xmlns="http://www.w3.org/2000/svg">
<g clip-path="url(#clip0_2665_48390)">
<path d="M103.125 56.1128C103.125 63.5538 100.162 70.69 94.8874 75.9515C89.6129 81.2132 82.4592 84.1691 75 84.1691C67.5408 84.1691 60.3871 81.2132 55.1126 75.9515C49.8382 70.69 46.875 63.5538 46.875 56.1128C46.875 48.6718 49.8382 41.5357 55.1126 36.2741C60.3871 31.0125 67.5408 28.0566 75 28.0566C82.4592 28.0566 89.6129 31.0125 94.8874 36.2741C100.162 41.5357 103.125 48.6718 103.125 56.1128Z" fill="#454C58"/>
<path fill-rule="evenodd" clip-rule="evenodd" d="M0 74.9999C0 55.1087 7.90176 36.0321 21.967 21.967C36.0322 7.90175 55.1088 0 75 0C94.8912 0 113.968 7.90175 128.033 21.967C142.098 36.0321 150 55.1087 150 74.9999C150 94.891 142.098 113.968 128.033 128.032C113.968 142.098 94.8912 150 75 150C55.1088 150 36.0322 142.098 21.967 128.032C7.90176 113.968 0 94.891 0 74.9999ZM75 9.37498C62.6417 9.37564 50.5347 12.8659 40.0725 19.444C29.6104 26.022 21.2183 35.4207 15.8622 46.5579C10.5061 57.6953 8.40362 70.1186 9.79686 82.3982C11.1901 94.6777 16.0224 106.314 23.7375 115.968C30.3938 105.243 45.0469 93.7498 75 93.7498C104.953 93.7498 119.597 105.234 126.263 115.968C133.978 106.314 138.81 94.6777 140.203 82.3982C141.596 70.1186 139.494 57.6953 134.138 46.5579C128.782 35.4207 120.39 26.022 109.927 19.444C99.4653 12.8659 87.3583 9.37564 75 9.37498Z" fill="#454C58"/>
</g>
<defs>
<clipPath id="clip0_2665_48390">
<rect width="150" height="150" fill="white"/>
</clipPath>
</defs>
</svg>
