<svg width="24" height="24" viewBox="0 0 24 24" fill="none" xmlns="http://www.w3.org/2000/svg">
<g clip-path="url(#clip0_3523_32091)">
<path fill-rule="evenodd" clip-rule="evenodd" d="M4 4H20.19C21.19 4 22 4.9 22 6V18C22 19.1 21.1 20 20 20H4C2.9 20 2 19.1 2 18V14C3.11 14 4 13.1 4 12C4 10.9 3.11 10 2.01 10V6C2.01 4.9 2.9 4 4 4ZM4 18H20V6H4L4.01 8.54C5.2 9.23 6 10.52 6 12C6 13.47 5.19 14.77 4 15.46V18ZM12.5556 11.5556H9V8H12.5556V11.5556ZM11.6667 8.88889H9.88889V10.6667H11.6667V8.88889ZM9 16H12.5556V12.4444H9V16ZM9.88889 13.3333H11.6667V15.1111H9.88889V13.3333ZM13.4444 11.5556V8H17V11.5556H13.4444ZM14.3333 10.6667H16.1111V8.88889H14.3333V10.6667ZM17 15.1111H16.1111L16.1111 14.2222H17V13.3333H16.1111V12.4444H15.2222V13.3333H14.3333V12.4444H13.4444V13.3333H14.3333V14.2222H13.4444V15.1111H14.3333V16H15.2222V15.1111H16.1111V16H17V15.1111ZM15.2222 14.2222H16.1111V13.3333H15.2222V14.2222ZM15.2222 14.2222V15.1111L14.3333 15.1111V14.2222H15.2222Z" fill="black"/>
</g>
<defs>
<clipPath id="clip0_3523_32091">
<rect width="24" height="24" fill="black"/>
</clipPath>
</defs>
</svg>
