<svg width="40" height="40" viewBox="0 0 40 40" fill="none" xmlns="http://www.w3.org/2000/svg">
<path d="M34.0625 4.6875H28.2031V3.51562C28.2031 1.57711 26.626 0 24.6875 0H15.3125C13.374 0 11.7969 1.57711 11.7969 3.51562V4.6875H5.9375C3.99898 4.6875 2.42188 6.26461 2.42188 8.20312C2.42188 9.76 3.43945 11.0829 4.84414 11.5438L6.93438 36.7762C7.08492 38.584 8.62383 40 10.4378 40H29.5622C31.3762 40 32.9152 38.584 33.0658 36.7757L35.1559 11.5437C36.5605 11.0829 37.5781 9.76 37.5781 8.20312C37.5781 6.26461 36.001 4.6875 34.0625 4.6875ZM14.1406 3.51562C14.1406 2.86945 14.6663 2.34375 15.3125 2.34375H24.6875C25.3337 2.34375 25.8594 2.86945 25.8594 3.51562V4.6875H14.1406V3.51562ZM30.73 36.5817C30.6798 37.1842 30.1669 37.6562 29.5622 37.6562H10.4378C9.8332 37.6562 9.32023 37.1842 9.27016 36.5823L7.21047 11.7188H32.7895L30.73 36.5817ZM34.0625 9.375H5.9375C5.29133 9.375 4.76562 8.8493 4.76562 8.20312C4.76562 7.55695 5.29133 7.03125 5.9375 7.03125H34.0625C34.7087 7.03125 35.2344 7.55695 35.2344 8.20312C35.2344 8.8493 34.7087 9.375 34.0625 9.375Z" fill="#454C58"/>
<path d="M15.3103 34.0682L14.1385 15.1619C14.0984 14.5159 13.5392 14.0246 12.8963 14.0648C12.2503 14.1049 11.7592 14.661 11.7992 15.3069L12.971 34.2132C13.0095 34.8346 13.5255 35.3126 14.1395 35.3126C14.8182 35.3126 15.352 34.7411 15.3103 34.0682Z" fill="#454C58"/>
<path d="M20 14.0625C19.3528 14.0625 18.8281 14.5872 18.8281 15.2344V34.1406C18.8281 34.7878 19.3528 35.3125 20 35.3125C20.6472 35.3125 21.1719 34.7878 21.1719 34.1406V15.2344C21.1719 14.5872 20.6472 14.0625 20 14.0625Z" fill="#454C58"/>
<path d="M27.1038 14.0648C26.4592 14.0247 25.9016 14.5159 25.8616 15.1619L24.6898 34.0681C24.6498 34.7141 25.141 35.2702 25.787 35.3103C26.4333 35.3503 26.9891 34.8589 27.0291 34.2131L28.2009 15.3069C28.2409 14.6609 27.7498 14.1048 27.1038 14.0648Z" fill="#454C58"/>
</svg>
