<svg width="22" height="25" viewBox="0 0 22 25" fill="none" xmlns="http://www.w3.org/2000/svg">
<path d="M8.5 12.5L13.5 17.6111M13.5 12.5L8.5 17.6111M18.5 4.83333L17.4989 20.1831C17.4113 21.5275 17.3674 22.1997 17.0834 22.7094C16.8332 23.1582 16.456 23.5189 16.0014 23.7442C15.485 24 14.8259 24 13.5077 24H8.49221C7.17409 24 6.51502 24 5.99861 23.7442C5.54396 23.5189 5.16674 23.1582 4.91665 22.7094C4.63259 22.1997 4.58875 21.5275 4.50107 20.1831L3.5 4.83333M1 4.83333H21M16 4.83333L15.6617 3.79587C15.3339 2.79049 15.1699 2.2878 14.8659 1.91614C14.5974 1.58794 14.2526 1.33391 13.8631 1.17733C13.422 1 12.9037 1 11.867 1H10.133C9.09625 1 8.578 1 8.13689 1.17733C7.7474 1.33391 7.4026 1.58794 7.13411 1.91614C6.83006 2.2878 6.66615 2.79049 6.3383 3.79587L6 4.83333" stroke="#00796B" stroke-width="2" stroke-linecap="round" stroke-linejoin="round"/>
</svg>
