<svg width="24" height="24" viewBox="0 0 24 24" fill="none" xmlns="http://www.w3.org/2000/svg">
<g clip-path="url(#clip0_969_1395)">
<path d="M14.7715 3.17188H14.0852C13.8433 2.4898 13.1916 2 12.4277 2C11.6638 2 11.0121 2.4898 10.7703 3.17188H10.084C9.76039 3.17188 9.49805 3.43422 9.49805 3.75781V4.34375H5.39648C5.07289 4.34375 4.81055 4.60609 4.81055 4.92969V21.4141C4.81055 21.7377 5.07289 22 5.39648 22H19.459C19.7826 22 20.0449 21.7377 20.0449 21.4141V4.92969C20.0449 4.60609 19.7826 4.34375 19.459 4.34375H15.3574V3.75781C15.3574 3.43422 15.0951 3.17188 14.7715 3.17188ZM10.6699 4.34375H11.2559C11.5795 4.34375 11.8418 4.08141 11.8418 3.75781C11.8418 3.43473 12.1046 3.17188 12.4277 3.17188C12.7508 3.17188 13.0137 3.43473 13.0137 3.75781C13.0137 4.08141 13.276 4.34375 13.5996 4.34375H14.1855V5.51562H10.6699V4.34375ZM18.873 5.51562V20.8281H5.98242V5.51562H9.49805V6.10156C9.49805 6.42516 9.76039 6.6875 10.084 6.6875H14.7715C15.0951 6.6875 15.3574 6.42516 15.3574 6.10156V5.51562H18.873Z" fill="#00796B" stroke="#00796B" stroke-width="0.166667"/>
<path d="M9.49805 8.44531C9.49805 8.76891 9.76039 9.03125 10.084 9.03125H17.1152C17.4388 9.03125 17.7012 8.76891 17.7012 8.44531C17.7012 8.12172 17.4388 7.85938 17.1152 7.85938H10.084C9.76039 7.85938 9.49805 8.12172 9.49805 8.44531Z" fill="#00796B" stroke="#00796B" stroke-width="0.166667"/>
<path d="M7.74023 9.03125C8.06384 9.03125 8.32617 8.76892 8.32617 8.44531C8.32617 8.12171 8.06384 7.85938 7.74023 7.85938C7.41663 7.85938 7.1543 8.12171 7.1543 8.44531C7.1543 8.76892 7.41663 9.03125 7.74023 9.03125Z" fill="#00796B" stroke="#00796B" stroke-width="0.166667"/>
<path d="M17.1152 10.2031H10.084C9.76039 10.2031 9.49805 10.4655 9.49805 10.7891C9.49805 11.1127 9.76039 11.375 10.084 11.375H17.1152C17.4388 11.375 17.7012 11.1127 17.7012 10.7891C17.7012 10.4655 17.4388 10.2031 17.1152 10.2031Z" fill="#00796B" stroke="#00796B" stroke-width="0.166667"/>
<path d="M7.74023 11.375C8.06384 11.375 8.32617 11.1127 8.32617 10.7891C8.32617 10.4655 8.06384 10.2031 7.74023 10.2031C7.41663 10.2031 7.1543 10.4655 7.1543 10.7891C7.1543 11.1127 7.41663 11.375 7.74023 11.375Z" fill="#00796B" stroke="#00796B" stroke-width="0.166667"/>
<path d="M17.1152 12.5469H10.084C9.76039 12.5469 9.49805 12.8092 9.49805 13.1328C9.49805 13.4564 9.76039 13.7188 10.084 13.7188H17.1152C17.4388 13.7188 17.7012 13.4564 17.7012 13.1328C17.7012 12.8092 17.4388 12.5469 17.1152 12.5469Z" fill="#00796B" stroke="#00796B" stroke-width="0.166667"/>
<path d="M7.74023 13.7188C8.06384 13.7188 8.32617 13.4564 8.32617 13.1328C8.32617 12.8092 8.06384 12.5469 7.74023 12.5469C7.41663 12.5469 7.1543 12.8092 7.1543 13.1328C7.1543 13.4564 7.41663 13.7188 7.74023 13.7188Z" fill="#00796B" stroke="#00796B" stroke-width="0.166667"/>
<path d="M17.1152 14.8906H7.74023C7.41664 14.8906 7.1543 15.153 7.1543 15.4766V19.0703C7.1543 19.3939 7.41664 19.6562 7.74023 19.6562H17.1152C17.4388 19.6562 17.7012 19.3939 17.7012 19.0703V15.4766C17.7012 15.153 17.4388 14.8906 17.1152 14.8906ZM16.5293 18.4844H8.32617V16.0625H16.5293V18.4844Z" fill="#00796B" stroke="#00796B" stroke-width="0.166667"/>
</g>
<defs>
<clipPath id="clip0_969_1395">
<rect width="24" height="24" fill="00796B"/>
</clipPath>
</defs>
</svg>
