<svg width="24" height="24" viewBox="0 0 24 24" fill="none" xmlns="http://www.w3.org/2000/svg">
<path d="M17.7266 9.11605V2.96875H4.02539V19.9082C4.02539 20.5292 4.52878 21.0326 5.14977 21.0326H18.851" stroke="#00796B" stroke-width="1.12431" stroke-miterlimit="10"/>
<path d="M17.7266 9.11523V19.9074C17.7266 20.5283 18.23 21.0317 18.8509 21.0317C19.4719 21.0317 19.9753 20.5283 19.9753 19.9074V9.11523H17.7266Z" stroke="#00796B" stroke-width="1.12431" stroke-miterlimit="10"/>
<path d="M5.7627 16.6104H10.3143" stroke="#00796B" stroke-width="1.12431" stroke-miterlimit="10"/>
<path d="M11.4385 16.6104H15.99" stroke="#00796B" stroke-width="1.12431" stroke-miterlimit="10"/>
<path d="M5.7627 14.4355H15.9902" stroke="#00796B" stroke-width="1.12431" stroke-miterlimit="10"/>
<path d="M5.7627 18.7842H10.3143" stroke="#00796B" stroke-width="1.12431" stroke-miterlimit="10"/>
<path d="M11.4385 18.7842H15.99" stroke="#00796B" stroke-width="1.12431" stroke-miterlimit="10"/>
<path d="M10.877 7.08301V8.81934" stroke="#00796B" stroke-width="1.12431" stroke-miterlimit="10"/>
<path d="M10.877 9.65625V10.7806" stroke="#00796B" stroke-width="1.12431" stroke-miterlimit="10"/>
<path d="M10.1069 5.21777H11.6471L15.1056 10.7216L14.3356 12.0554H7.41847L6.64844 10.7216L10.1069 5.21777Z" stroke="#00796B" stroke-width="1.12431" stroke-miterlimit="10"/>
</svg>
