<svg xmlns="http://www.w3.org/2000/svg" width="19" height="17" viewBox="0 0 19 17" fill="none">
<path d="M18.6389 0.925781L17.1544 2.41023L15.6789 0.925781L14.1944 2.41023L12.71 0.925781L11.2344 2.41023L9.74997 0.925781L8.26553 2.41023L6.78997 0.925781L5.30553 2.41023L3.82108 0.925781L2.34553 2.41023L0.861084 0.925781V15.148C0.861084 16.1258 1.66108 16.9258 2.63886 16.9258H16.8611C17.8389 16.9258 18.6389 16.1258 18.6389 15.148V0.925781ZM8.86108 15.148H2.63886V9.81467H8.86108V15.148ZM16.8611 15.148H10.6389V13.3702H16.8611V15.148ZM16.8611 11.5924H10.6389V9.81467H16.8611V11.5924ZM16.8611 8.03689H2.63886V5.37023H16.8611V8.03689Z" fill="#00796b"/>
</svg>