<svg width="21" height="21" viewBox="0 0 21 21" fill="none" xmlns="http://www.w3.org/2000/svg">
<g clip-path="url(#clip0_2289_38637)">
<path fill-rule="evenodd" clip-rule="evenodd" d="M3.23529 4.8189V11.0065C3.23529 15.6265 7.32782 17.8475 10.6149 19.6325L10.7027 19.6795L10.7916 19.6325C14.0787 17.8475 18.1712 15.6265 18.1712 11.0065V4.8189L10.7027 1.30078L3.23529 4.8189ZM10.7027 21.0013C10.6013 21.0013 10.5001 20.9753 10.4074 20.9259L10.0257 20.7184C6.63854 18.879 2 16.3615 2 11.0065V4.42729C2 4.18765 2.13836 3.97024 2.35453 3.86771L10.4408 0.0592922C10.6063 -0.0197641 10.8002 -0.0197641 10.9658 0.0592922L19.052 3.86773C19.2682 3.97026 19.4065 4.18768 19.4065 4.42732V11.0065C19.4065 16.3615 14.7668 18.879 11.3808 20.7184L10.9991 20.9259C10.9065 20.9753 10.8052 21.0013 10.7027 21.0013ZM15.8122 15.0113H12.3842L11.3824 14.0107V13.0941H10.1051V11.8168H9.18978L8.5499 11.177C8.5289 11.1782 8.5079 11.1782 8.4869 11.1782C6.56108 11.1782 4.99472 9.61184 4.99472 7.68601C4.99472 5.76019 6.56108 4.1926 8.4869 4.1926C10.4127 4.1926 11.9791 5.76019 11.9791 7.68601C11.9791 7.70701 11.9791 7.72801 11.9778 7.74778L15.8122 11.5834L15.8122 15.0113ZM12.8957 13.776H14.5769V12.0948L10.6894 8.20483L10.7327 7.79719C10.7438 6.44207 9.73084 5.4279 8.4869 5.4279C7.24296 5.4279 6.23001 6.44207 6.23001 7.68601C6.23001 8.93119 7.24296 9.9429 8.4869 9.9429L9.00326 9.88484L9.70119 10.5816H11.3404V11.8588H12.6177V13.4993L12.8957 13.776ZM9.46785 7.72134C9.46785 8.23276 9.05278 8.64781 8.54138 8.64781C8.02996 8.64781 7.61491 8.23276 7.61491 7.72134C7.61491 7.20993 8.02996 6.79487 8.54138 6.79487C9.05278 6.79487 9.46785 7.20993 9.46785 7.72134Z" fill="#00796B"/>
</g>
<defs>
<clipPath id="clip0_2289_38637">
<rect width="21" height="21" fill="white"/>
</clipPath>
</defs>
</svg>
