<svg width="24" height="24" viewBox="0 0 24 24" fill="none" xmlns="http://www.w3.org/2000/svg">
<g clip-path="url(#clip0_1927_5782)">
<path d="M15.5333 13.375C14.5583 12.9417 13.3583 12.625 12 12.625C10.6417 12.625 9.44167 12.95 8.46667 13.375C7.56667 13.775 7 14.675 7 15.6583V17H17V15.6583C17 14.675 16.4333 13.775 15.5333 13.375ZM8.725 15.3333C8.8 15.1417 8.95 14.9833 9.13333 14.9C10.05 14.4917 11.0167 14.2917 11.9917 14.2917C12.975 14.2917 13.9333 14.5 14.85 14.9C15.0417 14.9833 15.1833 15.1417 15.2583 15.3333H8.725Z" fill="#00796B"/>
<path d="M3.01667 14.1503C2.4 14.417 2 15.017 2 15.692V17.0003H5.75V15.6587C5.75 14.967 5.94167 14.317 6.275 13.7503C5.96667 13.7003 5.65833 13.667 5.33333 13.667C4.50833 13.667 3.725 13.842 3.01667 14.1503Z" fill="#00796B"/>
<path d="M20.9825 14.1503C20.2741 13.842 19.4908 13.667 18.6658 13.667C18.3408 13.667 18.0325 13.7003 17.7241 13.7503C18.0575 14.317 18.2491 14.967 18.2491 15.6587V17.0003H21.9991V15.692C21.9991 15.017 21.5991 14.417 20.9825 14.1503Z" fill="#00796B"/>
<path d="M12 12C13.3833 12 14.5 10.8833 14.5 9.5C14.5 8.11667 13.3833 7 12 7C10.6167 7 9.5 8.11667 9.5 9.5C9.5 10.8833 10.6167 12 12 12ZM12 8.66667C12.4583 8.66667 12.8333 9.04167 12.8333 9.5C12.8333 9.95833 12.4583 10.3333 12 10.3333C11.5417 10.3333 11.1667 9.95833 11.1667 9.5C11.1667 9.04167 11.5417 8.66667 12 8.66667Z" fill="#00796B"/>
<path d="M5.33253 9.08105L3.24658 11.167L5.33253 13.2529L7.41847 11.167L5.33253 9.08105Z" fill="#00796B"/>
<path d="M18.6668 9.5L16.5835 12.8333H20.7502L18.6668 9.5Z" fill="#00796B"/>
</g>
<defs>
<clipPath id="clip0_1927_5782">
<rect width="24" height="24" fill="white"/>
</clipPath>
</defs>
</svg>
