<svg width="25" height="25" viewBox="0 0 25 25" fill="none" xmlns="http://www.w3.org/2000/svg">
<g clip-path="url(#clip0_627_2989)">
<path d="M15.25 3.92578C15.802 3.92578 16.25 4.37378 16.25 4.92578V8.92578C16.25 9.47778 15.802 9.92578 15.25 9.92578H13.25V11.9258H17.25C17.802 11.9258 18.25 12.3738 18.25 12.9258V15.9258H20.25C20.802 15.9258 21.25 16.3738 21.25 16.9258V20.9258C21.25 21.4778 20.802 21.9258 20.25 21.9258H14.25C13.698 21.9258 13.25 21.4778 13.25 20.9258V16.9258C13.25 16.3738 13.698 15.9258 14.25 15.9258H16.25V13.9258H8.25V15.9258H10.25C10.802 15.9258 11.25 16.3738 11.25 16.9258V20.9258C11.25 21.4778 10.802 21.9258 10.25 21.9258H4.25C3.698 21.9258 3.25 21.4778 3.25 20.9258V16.9258C3.25 16.3738 3.698 15.9258 4.25 15.9258H6.25V12.9258C6.25 12.3738 6.698 11.9258 7.25 11.9258H11.25V9.92578H9.25C8.698 9.92578 8.25 9.47778 8.25 8.92578V4.92578C8.25 4.37378 8.698 3.92578 9.25 3.92578H15.25ZM9.25 17.9258H5.25V19.9258H9.25V17.9258ZM19.25 17.9258H15.25V19.9258H19.25V17.9258ZM14.25 5.92578H10.25V7.92578H14.25V5.92578Z" fill="black"/>
</g>
<defs>
<clipPath id="clip0_627_2989">
<rect width="24" height="24" fill="white" transform="translate(0.25 0.925781)"/>
</clipPath>
</defs>
</svg>
