<svg xmlns="http://www.w3.org/2000/svg" fill="none" viewBox="4.86 10 40 28">
<path fill-rule="evenodd" clip-rule="evenodd" d="M24.8564 18C21.5426 18 18.8564 20.6862 18.8564 24C18.8564 27.3138 21.5426 30 24.8564 30C28.1702 30 30.8564 27.3138 30.8564 24C30.8564 20.6862 28.1702 18 24.8564 18ZM22.8564 24C22.8564 22.8954 23.7518 22 24.8564 22C25.961 22 26.8564 22.8954 26.8564 24C26.8564 25.1046 25.961 26 24.8564 26C23.7518 26 22.8564 25.1046 22.8564 24Z" fill="#00796B"/>
<path fill-rule="evenodd" clip-rule="evenodd" d="M44.5164 22.5614C39.9404 14.3037 32.4808 10 24.8564 10C17.232 10 9.77237 14.3037 5.19651 22.5614C4.74919 23.3688 4.74367 24.3642 5.17703 25.1752C9.68011 33.6026 17.182 38 24.8564 38C32.5308 38 40.0328 33.6026 44.5358 25.1752C44.9692 24.3642 44.9636 23.3688 44.5164 22.5614ZM24.8564 34C18.9784 34 12.9375 30.7448 9.03991 23.8974C12.9937 17.1923 19.0028 14 24.8564 14C30.71 14 36.7192 17.1923 40.673 23.8974C36.7754 30.7448 30.7344 34 24.8564 34Z" fill="#00796B"/>
</svg>
