<svg width="19" height="25" viewBox="0 0 19 25" fill="none" xmlns="http://www.w3.org/2000/svg">
<path d="M9.58333 16.6204C13.7715 16.6204 17.1667 13.3559 17.1667 9.32878C17.1667 5.3017 13.7715 2.03711 9.58333 2.03711C5.39517 2.03711 2 5.3017 2 9.32878C2 13.3559 5.39517 16.6204 9.58333 16.6204Z" stroke="black" stroke-width="2"/>
<path d="M4.54964 15.5781L3.8597 17.9979C3.179 20.3852 2.83864 21.5789 3.29282 22.2324C3.452 22.4614 3.66552 22.6452 3.9133 22.7665C4.62032 23.1126 5.71195 22.5657 7.89518 21.4719C8.62166 21.1079 8.9849 20.9259 9.37079 20.8864C9.51389 20.8717 9.65798 20.8717 9.80109 20.8864C10.187 20.9259 10.5502 21.1079 11.2767 21.4719C13.4599 22.5657 14.5516 23.1126 15.2586 22.7665C15.5064 22.6452 15.7199 22.4614 15.879 22.2324C16.3333 21.5789 15.9929 20.3852 15.3122 17.9979L14.6222 15.5781" stroke="black" stroke-width="2" stroke-linecap="round"/>
</svg>
