<svg width="21" height="23" viewBox="0 0 21 23" fill="none" xmlns="http://www.w3.org/2000/svg">
<path d="M19.6667 9.16667V5.66667C19.6667 4.378 18.622 3.33333 17.3333 3.33333H3.33333C2.04467 3.33333 1 4.378 1 5.66667V9.16667M19.6667 9.16667V19.6667C19.6667 20.9554 18.622 22 17.3333 22H3.33333C2.04467 22 1 20.9554 1 19.6667V9.16667M19.6667 9.16667H1M5.66667 1V5.66667M15 1V5.66667" stroke="black" stroke-width="2" stroke-linecap="round"/>
<path d="M6.24967 11.5H3.91634C3.59418 11.5 3.33301 11.7612 3.33301 12.0833V14.4167C3.33301 14.7388 3.59418 15 3.91634 15H6.24967C6.57184 15 6.83301 14.7388 6.83301 14.4167V12.0833C6.83301 11.7612 6.57184 11.5 6.24967 11.5Z" fill="black"/>
<path d="M11.4997 11.5H9.16634C8.84418 11.5 8.58301 11.7612 8.58301 12.0833V14.4167C8.58301 14.7388 8.84418 15 9.16634 15H11.4997C11.8218 15 12.083 14.7388 12.083 14.4167V12.0833C12.083 11.7612 11.8218 11.5 11.4997 11.5Z" fill="black"/>
<path d="M16.7497 11.5H14.4163C14.0942 11.5 13.833 11.7612 13.833 12.0833V14.4167C13.833 14.7388 14.0942 15 14.4163 15H16.7497C17.0718 15 17.333 14.7388 17.333 14.4167V12.0833C17.333 11.7612 17.0718 11.5 16.7497 11.5Z" fill="black"/>
</svg>
