<svg width="20" height="14" viewBox="0 0 20 14" fill="none" xmlns="http://www.w3.org/2000/svg">
<mask id="path-1-inside-1_2289_38526" fill="white">
<path d="M6.74074 14L0 7.08642L1.20988 5.87654L6.74074 11.4938L18.1481 0L19.358 1.20988L6.74074 14Z"/>
</mask>
<path d="M6.74074 14L0 7.08642L1.20988 5.87654L6.74074 11.4938L18.1481 0L19.358 1.20988L6.74074 14Z" fill="black"/>
<path d="M6.74074 14L3.87674 16.7924L6.72402 19.7127L9.58834 16.8091L6.74074 14ZM0 7.08642L-2.82843 4.25799L-5.62128 7.05084L-2.864 9.87882L0 7.08642ZM1.20988 5.87654L4.06014 3.07013L1.23189 0.197677L-1.61855 3.04812L1.20988 5.87654ZM6.74074 11.4938L3.89047 14.3002L6.72942 17.1836L9.57982 14.3116L6.74074 11.4938ZM18.1481 0L20.9766 -2.82843L18.1375 -5.66755L15.3091 -2.81773L18.1481 0ZM19.358 1.20988L22.2056 4.019L24.9957 1.1907L22.1865 -1.61855L19.358 1.20988ZM9.60474 11.2076L2.864 4.29402L-2.864 9.87882L3.87674 16.7924L9.60474 11.2076ZM2.82843 9.91485L4.0383 8.70497L-1.61855 3.04812L-2.82843 4.25799L2.82843 9.91485ZM-1.64039 8.68296L3.89047 14.3002L9.59101 8.68741L4.06014 3.07013L-1.64039 8.68296ZM9.57982 14.3116L20.9872 2.81773L15.3091 -2.81773L3.90166 8.67609L9.57982 14.3116ZM15.3197 2.82843L16.5296 4.03831L22.1865 -1.61855L20.9766 -2.82843L15.3197 2.82843ZM16.5104 -1.59924L3.89314 11.1909L9.58834 16.8091L22.2056 4.019L16.5104 -1.59924Z" fill="black" mask="url(#path-1-inside-1_2289_38526)"/>
</svg>
