<svg width="44" height="44" viewBox="0 0 44 44" fill="none" xmlns="http://www.w3.org/2000/svg">
<path d="M11.2724 15.6364H14.9087C14.9087 16.6391 15.7242 17.4545 16.7269 17.4545H18.5451C19.5478 17.4545 20.3633 16.6391 20.3633 15.6364H33.0906C33.5924 15.6364 33.9996 15.23 33.9996 14.7273C33.9996 14.2245 33.5924 13.8182 33.0906 13.8182H20.3633C20.3633 12.8155 19.5478 12 18.5451 12H16.7269C15.7242 12 14.9087 12.8155 14.9087 13.8182H11.2724C10.7706 13.8182 10.3633 14.2245 10.3633 14.7273C10.3633 15.23 10.7706 15.6364 11.2724 15.6364Z" fill="#00796B"/>
<path d="M33.0906 21.0906H27.636C27.636 20.0879 26.8206 19.2725 25.8178 19.2725H23.9996C22.9969 19.2725 22.1815 20.0879 22.1815 21.0906H11.2724C10.7706 21.0906 10.3633 21.497 10.3633 21.9997C10.3633 22.5025 10.7706 22.9088 11.2724 22.9088H22.1815C22.1815 23.9116 22.9969 24.727 23.9996 24.727H25.8178C26.8206 24.727 27.636 23.9116 27.636 22.9088H33.0906C33.5924 22.9088 33.9996 22.5025 33.9996 21.9997C33.9996 21.497 33.5924 21.0906 33.0906 21.0906Z" fill="#00796B"/>
<path d="M33.0906 28.3641H20.3633C20.3633 27.3614 19.5478 26.5459 18.5451 26.5459H16.7269C15.7242 26.5459 14.9087 27.3614 14.9087 28.3641H11.2724C10.7706 28.3641 10.3633 28.7704 10.3633 29.2732C10.3633 29.7759 10.7706 30.1823 11.2724 30.1823H14.9087C14.9087 31.185 15.7242 32.0004 16.7269 32.0004H18.5451C19.5478 32.0004 20.3633 31.185 20.3633 30.1823H33.0906C33.5924 30.1823 33.9996 29.7759 33.9996 29.2732C33.9996 28.7704 33.5924 28.3641 33.0906 28.3641Z" fill="#00796B"/>
<rect x="1" y="1" width="42" height="42" rx="7" stroke="#EEEEEE" stroke-width="2"/>
</svg>
