<svg width="23" height="23" viewBox="0 0 23 23" fill="none" xmlns="http://www.w3.org/2000/svg">
<path fill-rule="evenodd" clip-rule="evenodd" d="M3.83333 0.958984C3.30406 0.958984 2.875 1.38805 2.875 1.91732V21.084C2.875 21.6133 3.30406 22.0423 3.83333 22.0423C4.3626 22.0423 4.79167 21.6133 4.79167 21.084V13.0324C5.23827 12.81 5.94428 12.5001 6.70116 12.3109C8.05873 11.9716 9.14823 12.0968 9.74433 12.9909C10.857 14.6597 12.9818 14.8067 14.6171 14.6438C16.3427 14.4719 18.05 13.9067 18.9131 13.5875C19.6714 13.3071 20.125 12.587 20.125 11.8273V5.48555C20.125 3.99879 18.5512 3.1308 17.2969 3.69964C16.2797 4.16095 14.9283 4.67612 13.7071 4.84627C12.4295 5.0243 11.6874 4.78341 11.339 4.26086C10.0818 2.37505 7.93076 2.15178 6.38915 2.28025C5.79734 2.32957 5.24744 2.43305 4.79167 2.54262V1.91732C4.79167 1.38805 4.3626 0.958984 3.83333 0.958984ZM4.79167 4.52501V10.9302C5.21413 10.7577 5.70799 10.5835 6.23633 10.4515C7.75375 10.0722 10.0184 9.94691 11.339 11.9276C11.7977 12.6156 12.8546 12.8932 14.427 12.7366C15.8851 12.5913 17.3863 12.1064 18.2083 11.8046V5.48555C18.2083 5.44201 18.1203 5.43079 18.0885 5.44519C17.0176 5.93086 15.4671 6.53622 13.9716 6.7446C12.5327 6.94511 10.7433 6.82255 9.74433 5.32408C9.08489 4.33504 7.88172 4.07918 6.54833 4.19029C5.86888 4.24692 5.23659 4.39582 4.79167 4.52501Z" fill="#0F0F0F"/>
</svg>
