<svg width="20" height="20" viewBox="0 0 20 20" fill="none" xmlns="http://www.w3.org/2000/svg">
<path d="M3.625 8.25H5.375C7.125 8.25 8 7.375 8 5.625V3.875C8 2.125 7.125 1.25 5.375 1.25H3.625C1.875 1.25 1 2.125 1 3.875V5.625C1 7.375 1.875 8.25 3.625 8.25Z" stroke="#000000" stroke-width="2" stroke-miterlimit="10" stroke-linecap="round" stroke-linejoin="round"/>
<path d="M14.125 8.25H15.875C17.625 8.25 18.5 7.375 18.5 5.625V3.875C18.5 2.125 17.625 1.25 15.875 1.25H14.125C12.375 1.25 11.5 2.125 11.5 3.875V5.625C11.5 7.375 12.375 8.25 14.125 8.25Z" stroke="#000000" stroke-width="2" stroke-miterlimit="10" stroke-linecap="round" stroke-linejoin="round"/>
<path d="M14.125 18.75H15.875C17.625 18.75 18.5 17.875 18.5 16.125V14.375C18.5 12.625 17.625 11.75 15.875 11.75H14.125C12.375 11.75 11.5 12.625 11.5 14.375V16.125C11.5 17.875 12.375 18.75 14.125 18.75Z" stroke="#000000" stroke-width="2" stroke-miterlimit="10" stroke-linecap="round" stroke-linejoin="round"/>
<path d="M3.625 18.75H5.375C7.125 18.75 8 17.875 8 16.125V14.375C8 12.625 7.125 11.75 5.375 11.75H3.625C1.875 11.75 1 12.625 1 14.375V16.125C1 17.875 1.875 18.75 3.625 18.75Z" stroke="#000000" stroke-width="2" stroke-miterlimit="10" stroke-linecap="round" stroke-linejoin="round"/>
</svg>
